<?xml version="1.0" encoding="utf-8"?>
<!-- Generator: Adobe Illustrator 19.2.0, SVG Export Plug-In . SVG Version: 6.00 Build 0)  -->
<svg version="1.1" id="Layer_1" xmlns="http://www.w3.org/2000/svg" xmlns:xlink="http://www.w3.org/1999/xlink" x="0px" y="0px"
	 width="216.7px" height="155.3px" viewBox="0 0 216.7 155.3" style="enable-background:new 0 0 216.7 155.3;" xml:space="preserve"
	>
<style type="text/css">
	.st0{fill:#FFFFFF;}
</style>
<g>
	<path class="st0" d="M154.8,19.9c-0.8-1.8-1.9-3.4-3.3-4.7s-3-2.4-4.8-3.2c-1.8-0.8-3.7-1.2-5.8-1.2s-4,0.4-5.8,1.2
		s-3.4,1.9-4.7,3.2c-1.4,1.4-2.4,2.9-3.2,4.7c-0.8,1.8-1.2,3.7-1.2,5.8c0,2,0.4,3.9,1.2,5.8c0.8,1.8,1.9,3.4,3.2,4.8
		c1.4,1.4,2.9,2.5,4.7,3.3s3.7,1.2,5.8,1.2c2,0,3.9-0.4,5.8-1.2c1.8-0.8,3.4-1.9,4.8-3.3c1.4-1.4,2.5-3,3.3-4.8s1.2-3.7,1.2-5.8
		S155.6,21.7,154.8,19.9z M83.2,19.9c-0.8-1.8-1.9-3.4-3.3-4.7c-1.4-1.4-3-2.4-4.8-3.2c-1.8-0.8-3.7-1.2-5.8-1.2
		c-2.1,0-4,0.4-5.8,1.2s-3.4,1.9-4.7,3.2s-2.4,2.9-3.2,4.7s-1.2,3.7-1.2,5.8c0,2,0.4,3.9,1.2,5.8c0.8,1.8,1.9,3.4,3.2,4.8
		c1.4,1.4,2.9,2.5,4.7,3.3s3.7,1.2,5.8,1.2c2,0,3.9-0.4,5.8-1.2c1.8-0.8,3.4-1.9,4.8-3.3c1.4-1.4,2.5-3,3.3-4.8s1.2-3.7,1.2-5.8
		C84.4,23.6,84,21.7,83.2,19.9z"/>
	<path class="st0" d="M25.6,145.3c12.4-12.5,25.6-22,39.5-28.3c13.9-6.4,28.4-9.6,43.6-9.6c30.3,0,58,12.6,82.9,37.9l10.1-9.9
		c-7.7-8.3-15.6-15.4-23.4-21.2c-7.9-5.8-15.8-10.5-23.6-14.1c-7.9-3.5-15.7-6.1-23.6-7.7c-7.8-1.6-15.7-2.4-23.6-2.4
		c-33.7,0-64.4,15-92.2,45L25.6,145.3z"/>
</g>
</svg>
