<svg id="Image_386" data-name="Image 386" xmlns="http://www.w3.org/2000/svg" viewBox="0 0 1919 40"><defs><style>.cls-1{fill:#fff;}.cls-2{fill:silver;}</style></defs><title>503_waves</title><g id="FailWhale"><g id="Wave"><path class="cls-1" d="M845.7,926.43c-0.71-1.14-1.12-1.16-1.84,0a58.63,58.63,0,0,1-28.26,23.82,50.26,50.26,0,0,0,14.8,3.73c8.54,0.79,17.11.51,25.66,0.25a50.81,50.81,0,0,0,17.9-4A58.67,58.67,0,0,1,845.7,926.43Zm-351.13,0c-0.71-1.16-1.12-1.15-1.83,0a58.64,58.64,0,0,1-28.26,23.83,50.26,50.26,0,0,0,14.8,3.73c8.54,0.79,17.1.51,25.66,0.25a50.8,50.8,0,0,0,17.9-4A58.65,58.65,0,0,1,494.57,926.43Zm117,0c-0.71-1.16-1.12-1.15-1.83,0a58.64,58.64,0,0,1-28.26,23.83,50.26,50.26,0,0,0,14.8,3.73c8.54,0.79,17.1.51,25.66,0.25a50.8,50.8,0,0,0,17.9-4A58.65,58.65,0,0,1,611.61,926.43Zm117,0c-0.71-1.16-1.12-1.15-1.83,0l-28.26,23.83a50.26,50.26,0,0,0,14.8,3.73c8.54,0.79,17.11.51,25.66,0.25a50.8,50.8,0,0,0,17.9-4A58.65,58.65,0,0,1,728.66,926.43Zm-351.13,0c-0.71-1.16-1.12-1.15-1.83,0a58.64,58.64,0,0,1-28.26,23.83,50.26,50.26,0,0,0,14.8,3.73c8.54,0.79,17.11.51,25.66,0.25a50.8,50.8,0,0,0,17.9-4A58.65,58.65,0,0,1,377.53,926.43Zm-350.92.36c-1.12-1.78-1.15-1.78-2.32.12A57.42,57.42,0,0,1,6.84,944.72,45.1,45.1,0,0,1,0,948.63v3A52.85,52.85,0,0,0,11.12,954c8.67,0.81,17.37.54,26,.26a47.17,47.17,0,0,0,17.5-4A58.48,58.48,0,0,1,26.6,926.79Zm233.88-.36c-0.72-1.16-1.13-1.14-1.83,0a58.38,58.38,0,0,1-28.26,23.82A51.72,51.72,0,0,0,245.57,954c8.09,0.77,16.21.41,24.31,0.28a51.1,51.1,0,0,0,18.87-4A58.65,58.65,0,0,1,260.48,926.43Zm-117,0c-0.71-1.16-1.12-1.15-1.83,0a58.64,58.64,0,0,1-28.26,23.83,50.26,50.26,0,0,0,14.8,3.73c8.54,0.79,17.1.51,25.66,0.25a50.81,50.81,0,0,0,17.9-4A58.65,58.65,0,0,1,143.44,926.43ZM982.9,946.18A57.07,57.07,0,0,1,963,926.79c-0.4-.63-0.71-1.26-1.15-1.22-0.4-.32-0.69.1-1.44,1.33a57.42,57.42,0,0,1-17.44,17.82,34.23,34.23,0,0,1-9.84,5v0.35l-0.45.19,0.45,0.17v0.45c0.7-.3,1.24.18,1.83,0.38A54.29,54.29,0,0,0,947.22,954c1.42,0.13,2.84.23,4.26,0.31h0.07c7.23,0.4,14.48.19,21.71,0,0.71,0,1.41-.06,2.11-0.12h0.07a47.33,47.33,0,0,0,15.31-3.88,63,63,0,0,1-7.86-3.86v-0.21Zm798.9-19.74c-0.71-1.14-1.12-1.16-1.84,0a58.63,58.63,0,0,1-28.26,23.82,50.26,50.26,0,0,0,14.8,3.73c8.54,0.79,17.1.51,25.66,0.25a50.81,50.81,0,0,0,17.9-4A58.67,58.67,0,0,1,1781.8,926.43Zm-234.09,0c-0.71-1.16-1.12-1.15-1.83,0a58.64,58.64,0,0,1-28.26,23.83,50.26,50.26,0,0,0,14.8,3.73c8.54,0.79,17.1.51,25.66,0.25a50.8,50.8,0,0,0,17.9-4A58.65,58.65,0,0,1,1547.71,926.43Zm-468.18,0c-0.71-1.16-1.12-1.15-1.83,0a58.64,58.64,0,0,1-28.26,23.83,50.26,50.26,0,0,0,14.8,3.73c8.54,0.79,17.11.51,25.66,0.25a50.8,50.8,0,0,0,17.9-4A58.65,58.65,0,0,1,1079.54,926.43Zm819.53,0.37c-0.64-1-1.06-2-2.15-.24a58.35,58.35,0,0,1-28.16,23.7,48.44,48.44,0,0,0,11.73,3.32c9.48,1.44,19,.78,28.54.69a43.56,43.56,0,0,0,10-1.42v-6.66A57.07,57.07,0,0,1,1899.07,926.79Zm-234.31-.37c-0.71-1.16-1.12-1.15-1.83,0l-28.26,23.83a50.26,50.26,0,0,0,14.8,3.73c8.54,0.79,17.1.51,25.66,0.25a50.81,50.81,0,0,0,17.9-4A58.65,58.65,0,0,1,1664.76,926.43Zm-468.18,0c-0.72-1.16-1.13-1.14-1.83,0a58.38,58.38,0,0,1-28.26,23.82,51.71,51.71,0,0,0,15.18,3.77c8.09,0.77,16.21.41,24.31,0.28a51.1,51.1,0,0,0,18.87-4A58.65,58.65,0,0,1,1196.58,926.43Zm117,0c-0.71-1.16-1.12-1.15-1.83,0a58.64,58.64,0,0,1-28.26,23.83,50.26,50.26,0,0,0,14.8,3.73c8.54,0.79,17.1.51,25.66,0.25a50.8,50.8,0,0,0,17.9-4A58.65,58.65,0,0,1,1313.63,926.43Zm117,0c-0.71-1.16-1.12-1.15-1.83,0a58.64,58.64,0,0,1-28.26,23.83,50.26,50.26,0,0,0,14.8,3.73c8.54,0.79,17.1.51,25.66,0.25a50.8,50.8,0,0,0,17.9-4A58.65,58.65,0,0,1,1430.67,926.43Z" transform="translate(0 -924.01)"/></g><g id="WaveColor"><path class="cls-2" d="M1919,951.43a43.55,43.55,0,0,1-10,1.42c-9.52.09-19.06,0.76-28.54-.69a48.42,48.42,0,0,1-11.73-3.32,46.07,46.07,0,0,1-11.27-5.8,57.71,57.71,0,0,1-17.33-18.25c-0.58-1-1-1-1.61,0a82.57,82.57,0,0,1-6,8.14,57.18,57.18,0,0,1-9.12,8.38,62.39,62.39,0,0,1-13.3,7.58,50.79,50.79,0,0,1-17.9,4c-8.55.26-17.11,0.54-25.65-.25a50.24,50.24,0,0,1-14.8-3.73,46.06,46.06,0,0,1-11.27-5.8,57.71,57.71,0,0,1-17.33-18.25c-0.58-1-1-1-1.61,0a82.56,82.56,0,0,1-6,8.14,57.19,57.19,0,0,1-9.12,8.38,62.38,62.38,0,0,1-13.3,7.58,50.78,50.78,0,0,1-17.9,4c-8.55.26-17.11,0.54-25.65-.25a50.24,50.24,0,0,1-14.8-3.73,57.38,57.38,0,0,1-28.2-23.36c-1.22-1.91-1.11-1.91-2.48.07a65.85,65.85,0,0,1-11.11,12.88A67.62,67.62,0,0,1,1576,948.84a50.79,50.79,0,0,1-17.9,4c-8.55.26-17.11,0.54-25.65-.25a50.24,50.24,0,0,1-14.8-3.73,46.07,46.07,0,0,1-11.27-5.8A57.71,57.71,0,0,1,1489,924.79c-0.58-1-1-1-1.61,0a82.58,82.58,0,0,1-6,8.14,57.18,57.18,0,0,1-9.12,8.38,62.39,62.39,0,0,1-13.3,7.58,50.78,50.78,0,0,1-17.9,4c-8.55.26-17.11,0.54-25.65-.25a50.24,50.24,0,0,1-14.8-3.73,4,4,0,0,1-.56-0.14,58.12,58.12,0,0,1-27.87-23.56c-0.47-.76-0.81-1.91-1.78-0.39a85.79,85.79,0,0,1-6,8.14,57.18,57.18,0,0,1-9.12,8.38,62.39,62.39,0,0,1-13.3,7.58,50.78,50.78,0,0,1-17.9,4c-8.55.26-17.11,0.54-25.65-.25a50.24,50.24,0,0,1-14.8-3.73,46.07,46.07,0,0,1-11.27-5.8A57.71,57.71,0,0,1,1255,924.79c-0.58-1-1-1-1.61,0a82.56,82.56,0,0,1-6,8.14,57.17,57.17,0,0,1-9.12,8.38,62.39,62.39,0,0,1-13.3,7.58,51.08,51.08,0,0,1-18.87,4c-8.1.13-16.21,0.49-24.3-.28a51.7,51.7,0,0,1-15.18-3.77,46.07,46.07,0,0,1-11.27-5.8,57.71,57.71,0,0,1-17.33-18.25c-0.58-1-1-1-1.61,0a82.54,82.54,0,0,1-6,8.14,57.18,57.18,0,0,1-9.12,8.38,62.39,62.39,0,0,1-13.3,7.58,50.79,50.79,0,0,1-17.9,4c-8.55.26-17.11,0.54-25.65-.25a50.24,50.24,0,0,1-14.8-3.73,46.07,46.07,0,0,1-11.27-5.8,57.71,57.71,0,0,1-17.33-18.25c-0.58-1-1-1-1.61,0a82.57,82.57,0,0,1-6,8.14,57.19,57.19,0,0,1-9.12,8.38,62.39,62.39,0,0,1-13.3,7.58,48.08,48.08,0,0,1-8,2.69v-0.11a43.55,43.55,0,0,1-10,1.42c-6.93.07-13.88,0.43-20.8,0.07l-0.84,0c-2.3-.14-4.6-0.36-6.9-0.71a48.42,48.42,0,0,1-11.73-3.32,46.07,46.07,0,0,1-11.27-5.8A57.71,57.71,0,0,1,904,924.79c-0.58-1-1-1-1.61,0a82.58,82.58,0,0,1-6,8.14,57.18,57.18,0,0,1-9.12,8.38,62.39,62.39,0,0,1-13.3,7.58,50.79,50.79,0,0,1-17.9,4c-8.55.26-17.11,0.54-25.65-.25a50.24,50.24,0,0,1-14.8-3.73,46.07,46.07,0,0,1-11.27-5.8A57.71,57.71,0,0,1,787,924.79c-0.58-1-1-1-1.61,0a82.54,82.54,0,0,1-6,8.14,57.18,57.18,0,0,1-9.12,8.38,62.39,62.39,0,0,1-13.3,7.58,50.78,50.78,0,0,1-17.9,4c-8.55.26-17.11,0.54-25.65-.25a50.24,50.24,0,0,1-14.8-3.73,57.38,57.38,0,0,1-28.2-23.36c-1.22-1.91-1.11-1.91-2.48.07a65.85,65.85,0,0,1-11.11,12.88,67.62,67.62,0,0,1-16.88,10.42,50.79,50.79,0,0,1-17.9,4c-8.55.26-17.11,0.54-25.65-.25a50.24,50.24,0,0,1-14.8-3.73,46.06,46.06,0,0,1-11.27-5.8,57.71,57.71,0,0,1-17.33-18.25c-0.58-1-1-1-1.61,0a82.55,82.55,0,0,1-6,8.14,57.18,57.18,0,0,1-9.12,8.38,62.38,62.38,0,0,1-13.3,7.58,50.79,50.79,0,0,1-17.9,4c-8.55.26-17.11,0.54-25.65-.25a50.24,50.24,0,0,1-14.8-3.73,4,4,0,0,1-.56-0.14,58.12,58.12,0,0,1-27.87-23.56c-0.47-.76-0.81-1.91-1.78-0.39a85.79,85.79,0,0,1-6,8.14,57.18,57.18,0,0,1-9.12,8.38,62.39,62.39,0,0,1-13.3,7.58,50.78,50.78,0,0,1-17.9,4c-8.55.26-17.11,0.54-25.65-.25a50.24,50.24,0,0,1-14.8-3.73A46.07,46.07,0,0,1,336.2,943a57.71,57.71,0,0,1-17.33-18.25c-0.58-1-1-1-1.61,0a82.57,82.57,0,0,1-6,8.14,57.17,57.17,0,0,1-9.12,8.38,62.38,62.38,0,0,1-13.3,7.58,51.07,51.07,0,0,1-18.87,4c-8.1.13-16.21,0.49-24.3-.28a51.7,51.7,0,0,1-15.18-3.77,46.07,46.07,0,0,1-11.27-5.8,57.71,57.71,0,0,1-17.33-18.25c-0.58-1-1-1-1.61,0a82.55,82.55,0,0,1-6,8.14,57.19,57.19,0,0,1-9.12,8.38,62.39,62.39,0,0,1-13.3,7.58,50.79,50.79,0,0,1-17.9,4c-8.55.26-17.11,0.54-25.65-.25a50.25,50.25,0,0,1-14.8-3.73,46.07,46.07,0,0,1-11.27-5.8,57.71,57.71,0,0,1-17.33-18.25c-0.58-1-1-1-1.61,0a82.57,82.57,0,0,1-6,8.14A57.18,57.18,0,0,1,68,941.26a62.39,62.39,0,0,1-13.3,7.58,47.15,47.15,0,0,1-17.5,4c-8.67.28-17.37,0.54-26-.26A52.91,52.91,0,0,1,0,950.2V964q467.15-.05,934.3,0a5.26,5.26,0,0,0,.63,0h47.14a1.2,1.2,0,0,0,.36,0q467.39,0,934.78,0a4,4,0,0,1,.78,0c0.85,0.17,1-.15,1-1C1918.93,959.13,1919,955.28,1919,951.43Z" transform="translate(0 -924.01)"/></g></g></svg>