<svg id="Layer_1" data-name="Layer 1" xmlns="http://www.w3.org/2000/svg" width="499.01" height="469.26" viewBox="0 0 499.01 469.26">
  <defs>
    <style>
      .cls-1 {
        fill: silver;
      }

      .cls-2 {
        fill: #fff;
      }
    </style>
  </defs>
  <title>503_fail_whale-01</title>
  <g>
    <path class="cls-1" d="M394.61,273.21h-2l-1.09-.11a2.16,2.16,0,0,1,1.06-1.32,5.85,5.85,0,0,0,2.43-5.3c-0.11-1.76,1-3.48,2.08-4.84,3.59-4.44,8.39-5.32,13.56-3.73,1,0.31,1.56,1.23,2.31,1.88,2,1.74,4.34,3.17,4.84,6.08a2,2,0,0,0,.65.2c-0.33-.87-0.65-1.59-0.89-2.34-1.67-5.06-.14-9.74,4.46-12.38a34.39,34.39,0,0,1,5.79-2.85,8.68,8.68,0,0,0,5.62-7.48c0-.43-0.3-1,0.26-1.26a1.41,1.41,0,0,1,1.43.53c1.79,1.64,2.45,3.87,2.87,6.14a50.68,50.68,0,0,1,.4,14.25,4.94,4.94,0,0,1-.13,1.06c-0.18.56-.58,1.28-0.14,1.65,0.64,0.54,1.25-.19,1.83-0.5a22.46,22.46,0,0,0,8.33-7.87,7.58,7.58,0,0,0,.49-0.73,0.89,0.89,0,0,1,1.1-.65c0.5,0.18.26,0.71,0.24,1.08-0.38,8.12-2.65,15.6-7.73,22.06-6,7.64-13.9,11.32-23.62,10.51a19.59,19.59,0,0,1-10-4.08,20.57,20.57,0,0,1-7-9.19,1.33,1.33,0,0,0-1.52-.87C398.4,273.18,396.51,273.19,394.61,273.21ZM430,255.34a7.92,7.92,0,0,0-5.46,2.15c-1.9,1.73-2.38,4-2.63,6.38a2.66,2.66,0,0,0,2.56,3.28,8,8,0,0,0,8.84-7.85C433.45,256.56,432.65,255.37,430,255.34Zm-24.31,9.72a2.67,2.67,0,1,0-2.6,2.74A2.6,2.6,0,0,0,405.65,265.07Z" transform="translate(-28.07 -8.95)"/>
    <path class="cls-1" d="M209.7,63.1h-1.76l-1.61-.1a1.31,1.31,0,0,1,.77-1.08,7.89,7.89,0,0,0,2.77-5.7,10.44,10.44,0,0,1,8.44-8.82,10.93,10.93,0,0,1,4.39-.24c4.63,1,7.7,3.9,9.67,8.1,0.14,0.3.15,0.74,0.82,0.57-0.28-.73-0.59-1.45-0.84-2.2-1.68-5.07-.16-9.73,4.45-12.39a34.18,34.18,0,0,1,5.79-2.85,8.69,8.69,0,0,0,5.63-7.47c0-.44-0.3-1,0.25-1.26a1.39,1.39,0,0,1,1.43.52c1.79,1.64,2.45,3.87,2.87,6.14a50.63,50.63,0,0,1,.4,14.26,5.12,5.12,0,0,1-.13,1.06c-0.18.56-.59,1.27-0.14,1.65,0.64,0.55,1.25-.18,1.83-0.49a22.52,22.52,0,0,0,8.34-7.87,7.17,7.17,0,0,0,.49-0.73,0.89,0.89,0,0,1,1.09-.65c0.5,0.18.26,0.71,0.24,1.08-0.41,7.66-2.42,14.76-7,21.06-4.11,5.65-9.38,9.57-16.24,11-8.2,1.75-15.43-.18-21.25-6.41a18.19,18.19,0,0,1-3.72-6.05A1.48,1.48,0,0,0,215,63C213.26,63.1,211.48,63.09,209.7,63.1Zm34.87-17.86a7.27,7.27,0,0,0-2.77.52,8.68,8.68,0,0,0-5.23,9A2.54,2.54,0,0,0,238.94,57c4.45,0.62,8.08-2.47,9-7.07C248.56,46.79,247.23,45,244.57,45.25ZM220.39,55.1a2.67,2.67,0,1,0-2.74,2.6A2.6,2.6,0,0,0,220.39,55.1Z" transform="translate(-28.07 -8.95)"/>
    <path class="cls-1" d="M309.29,116.52l-1.37-.11-0.39-.38,1.82-1.43a4.27,4.27,0,0,0,1.77-1.68c0.13-2.37.26-4.71,1.55-6.86a11,11,0,0,1,14.56-4.5c2.71,1.43,5.71,3.45,6.63,7,0.08,0.32.09,0.92,0.89,0.65-0.4-1.07-.87-2.12-1.17-3.23a10.36,10.36,0,0,1,6.13-12.11c2.47-1.07,5.14-1.93,7.2-3.84a8,8,0,0,0,2.79-6.09c0-1,.29-1.12,1.16-0.69a5.41,5.41,0,0,1,2.57,3.47,36.29,36.29,0,0,1,1.38,15,16.53,16.53,0,0,1-.47,4.21c-0.35,1,.3,1.18,1,0.75a42.66,42.66,0,0,0,3.75-2.35,23.17,23.17,0,0,0,5.78-6.45c0.32-.49.55-1.19,1.28-0.91,0.54,0.21.22,0.84,0.2,1.27-0.51,9.54-3.54,18.07-10.43,24.91-5.82,5.77-13,8.47-21.08,7.42-7.75-1-13.48-5.4-16.59-12.75a1.83,1.83,0,0,0-2.07-1.38c-1.66.09-3.32,0.06-5,.08h-2ZM346.1,98.66a7.27,7.27,0,0,0-2.77.52,8.69,8.69,0,0,0-5.23,9,2.54,2.54,0,0,0,2.37,2.25c4.45,0.62,8.08-2.47,9-7.08C350.09,100.23,348.79,98.44,346.1,98.66Zm-24.18,9.72a2.67,2.67,0,1,0-2.6,2.74A2.6,2.6,0,0,0,321.92,108.38Z" transform="translate(-28.07 -8.95)"/>
    <path class="cls-1" d="M155.78,41.74h-1.66c-2.78-.43-4.53.14-6.08,3.11-3.82,7.32-10.36,10.84-18.64,11.08a23.64,23.64,0,0,1-15.66-5.35,32.44,32.44,0,0,1-10.44-15,34.39,34.39,0,0,1-2.21-12.22c0-.42-0.35-1,0.32-1.2s0.75,0.49,1,.86a23.23,23.23,0,0,0,8.7,8.6c0.47,0.27,1.06.86,1.59,0.33a1.93,1.93,0,0,0,.18-1.71,42.59,42.59,0,0,1,.43-15.93,8.84,8.84,0,0,1,2.31-4.63A1.63,1.63,0,0,1,117.1,9c0.64,0.18.28,0.81,0.36,1.22,0.8,4.25,3.2,6.74,7.39,8.2,2.38,0.83,5,2,6.73,4.18a10.72,10.72,0,0,1,2.57,7.29c0,0.36-.24.9,0.31,1.07a1,1,0,0,0,.84-0.54c1.5-1.2,3-2.46,4.49-3.6a7.84,7.84,0,0,1,5.54-1.11c6.09,0.65,10.19,4.23,10.81,10.71,0.2,2.07,1.57,2.9,2.64,4.15a7.61,7.61,0,0,0,1.07.82C158.29,41.93,157,41.5,155.78,41.74ZM126,36.39c2.1,0,3.21-.74,3.49-2.27,0.65-3.53-1.91-7.87-5.36-9.11-4.54-1.63-6.6,0-5.91,4.71A7.88,7.88,0,0,0,126,36.39Zm25-2.68a2.67,2.67,0,1,0-2.71,2.63A2.59,2.59,0,0,0,150.91,33.71Z" transform="translate(-28.07 -8.95)"/>
    <path class="cls-1" d="M422.26,95.15c-3.3-.47-5.47.07-7.38,3.66-3.88,7.27-10.65,10.57-18.93,10.51-6.13,0-11.3-2.33-16-6.29-5.37-4.52-8.35-10.36-10.36-16.82A27.33,27.33,0,0,1,368.26,77c0-.48-0.34-1.16.33-1.39s0.78,0.55,1,1a23.54,23.54,0,0,0,8.6,8.45c0.49,0.28,1.07.86,1.6,0.41a1.86,1.86,0,0,0,.22-1.85,38.45,38.45,0,0,1-.36-8.7,31.85,31.85,0,0,1,.76-6.87,10.77,10.77,0,0,1,2.29-4.83,1.75,1.75,0,0,1,1.5-.75c0.81,0.13.37,0.87,0.46,1.31,0.86,4.32,3.43,6.55,7.62,8.15,5.26,2,9.65,5.49,9.09,12.22a1.23,1.23,0,0,0,.26.39A36.39,36.39,0,0,0,406,81.11c2-2,4.37-2.23,6.79-1.95,6.16,0.73,9.65,4.07,10.53,10.37a6.86,6.86,0,0,0,2.47,4.23,9.17,9.17,0,0,0,1.15.83l-0.22.56h-4.44Zm-29-5.36c2.65-.06,3.63-1.21,3.24-3.79-0.05-.35-0.09-0.7-0.14-1.05A7.82,7.82,0,0,0,387.66,78a2.65,2.65,0,0,0-2.54,3.15c0.08,0.7.17,1.41,0.28,2.11A7.85,7.85,0,0,0,393.28,89.79Zm19.49-2.71a2.67,2.67,0,1,0,2.67-2.67A2.59,2.59,0,0,0,412.78,87.08Z" transform="translate(-28.07 -8.95)"/>
    <path class="cls-1" d="M271.64,150.35h-2c-1.78,0-3.66-.41-5.31,0s-1.69,2.67-2.6,4c-4.67,6.9-11.11,10.33-19.47,10.07a24.57,24.57,0,0,1-15.47-6.25c-5.37-4.52-8.34-10.37-10.37-16.82a29.07,29.07,0,0,1-1.3-9.42c0-.42-0.34-1,0.29-1.23s0.76,0.45,1,.82a23,23,0,0,0,8.55,8.51c0.54,0.31,1.16,1,1.75.48a1.88,1.88,0,0,0,.18-1.86,29.13,29.13,0,0,1-.38-5.65,44.71,44.71,0,0,1,.4-7.91,13.24,13.24,0,0,1,2.6-6.7,1.69,1.69,0,0,1,1.63-.84c0.73,0.17.34,0.89,0.43,1.35,0.84,4.26,3.37,6.52,7.49,8.09s8.19,3.9,9,9.12c0.18,1.13-.09,2.25.27,3.46a15.92,15.92,0,0,0,4.52-3.38,7.85,7.85,0,0,1,7.18-1.8c6.26,1.11,9.14,3.95,10.1,10.19a6.57,6.57,0,0,0,2.29,4.13,11.2,11.2,0,0,0,1.46,1l-0.34.47ZM240,145c2.09,0,3.19-.77,3.45-2.31a8.84,8.84,0,0,0-5.25-9c-4.6-1.74-6.75-.05-6,4.71A7.87,7.87,0,0,0,240,145Zm22.28,0a2.67,2.67,0,1,0-2.7-2.63A2.59,2.59,0,0,0,262.28,144.95Z" transform="translate(-28.07 -8.95)"/>
    <path class="cls-1" d="M84.28,88H82.73c-2.75-.46-4.41.18-5.92,3.08C73,98.37,66.56,101.93,58.36,102.22a23.79,23.79,0,0,1-15.88-5.35A32.92,32.92,0,0,1,31.64,80.67,32,32,0,0,1,29.85,70c0-.51-0.5-1.3.34-1.51,0.66-.17.73,0.62,1,1a23.7,23.7,0,0,0,8.51,8.32c0.5,0.28,1,.86,1.6.48s0.39-1.18.28-1.81a40.37,40.37,0,0,1-.36-8.89,32.67,32.67,0,0,1,.75-6.7,11.14,11.14,0,0,1,2.26-4.84,1.82,1.82,0,0,1,1.49-.79c0.87,0.09.41,0.85,0.49,1.27,0.83,4.24,3.24,6.71,7.43,8.16,2.37,0.82,5,2,6.72,4.21a10.77,10.77,0,0,1,2.53,7.49A7.84,7.84,0,0,0,63,77.49,36.61,36.61,0,0,0,67.5,74c1.95-2.06,4.39-2.23,6.8-1.95,6.22,0.72,9.84,4.3,10.57,10.55a6,6,0,0,0,2.19,3.81c0.42,0.41.88,0.77,1.33,1.15L88.24,88h-4ZM54.72,82.68c2.1,0,3.2-.75,3.47-2.29a8.79,8.79,0,0,0-5.22-9c-1.75-.64-3.62-1-5.28.08-1.82,1.23-.94,3.14-0.71,4.75A7.75,7.75,0,0,0,54.72,82.68ZM79.66,80a2.67,2.67,0,0,0-5.34-.14A2.67,2.67,0,1,0,79.66,80Z" transform="translate(-28.07 -8.95)"/>
    <path class="cls-1" d="M370.77,214.32a2.3,2.3,0,0,0-1.63-.28,2,2,0,0,0-.46-0.26,20.93,20.93,0,0,1-14.8-12.58,1.39,1.39,0,0,0-1.52-1.07c-1.83.08-3.67,0.06-5.5,0.08h-2l-1.39-.1-0.44-.42,1.89-1.39a4.27,4.27,0,0,0,1.77-1.68,17.26,17.26,0,0,1,1.47-6.7c3.48-6.79,13.94-7.38,17.65-2.66,1.37,1.75,3.35,3,3.78,5.43a0.4,0.4,0,0,0,.56.29c0.4-.46-0.14-0.74-0.28-1a10.18,10.18,0,0,1,4.26-13.79,44.19,44.19,0,0,1,6.68-3.25c1.09-.06,1.66-0.87,2.29-1.59a0.57,0.57,0,0,0,.4-0.58l0,0c1.77-1.66,1.94-3.88,2.15-6.09h0c3.15,1,3.63,3.9,4.16,6.46a36.87,36.87,0,0,1,.74,10.53c-0.24,2.86-.15,5.78-1.48,8.45-0.52,1,.23.92,0.81,0.91a16.84,16.84,0,0,0,9.33-3c0.47-.32,1-0.61,1.46-0.93,0.75,3.62-4.94,14.19-9.95,18.59A26.08,26.08,0,0,1,370.77,214.32Zm6.57-20.11c0.09,0,.44,0,0.79-0.08,4.15-.53,6.49-3.31,7.11-8.4a2.76,2.76,0,0,0-2.88-3.37c-4.52-.24-7.91,2.78-8.43,7.5C373.56,193.17,374.24,194.11,377.34,194.21Zm-19.79-2.12a2.67,2.67,0,1,0-2.63,2.7A2.59,2.59,0,0,0,357.55,192.1Z" transform="translate(-28.07 -8.95)"/>
  </g>
  <g>
    <path class="cls-2" d="M155.9,42.09c-8.11,15.66-12.17,32.58-15.55,49.71-2.51,12.74-4.23,25.6-5.59,38.51-0.84,7.9-1.44,15.81-1.94,23.74-1,15.92-1.5,31.86-1.35,47.81,0.15,15.71.69,31.4,2,47.06,0.14,1.58-.45,3.61.66,4.62s3.07,0.31,4.66.32A212.65,212.65,0,0,1,169,256.09c1.85,0.27,2-.55,2-1.87,0.15-5.87.24-11.74,0.5-17.6,0.71-16,1.83-32.07,3.51-48A546.76,546.76,0,0,1,185.26,124c3.5-15.33,7.76-30.44,14.15-44.86a106,106,0,0,1,8.66-15.71h1.76c-12.3,18.14-17.84,38.87-22.76,59.8a501.66,501.66,0,0,0-9.59,58.18c-1.29,11.3-2.27,22.64-3,34q-1.28,19.52-1.79,39.07c0,1.87.62,2.28,2.2,2.54A190.82,190.82,0,0,1,219,269.86a159.86,159.86,0,0,1,26.59,14.33c0.29,0.2.6,0.37,1.07,0.65a52.88,52.88,0,0,0,2.26-7.59c4.26-16.49,8.05-33.1,11.07-49.86,2.11-11.75,4-23.55,5.51-35.39q1.72-13.29,3.07-26.62c0.49-4.89.79-9.79,1.18-14.69h2c-0.92,10.37-1.88,20.74-3.08,31.09q-3.34,28.83-9,57.28-4.55,23-10.78,45.57c-0.14.5-.1,1.35-1,1.26-1.4-.15-1.62.76-1.9,1.8a531,531,0,0,1-30.82,84.12c-12.47,26.6-27.22,51.84-45.46,74.95-1.87,2.37-3.87,4.65-5.75,7a1.87,1.87,0,0,1-2.28.76c-25.85-7.07-51.2-15.52-75.16-27.7C74,420.45,62,413.1,51.56,403.52a76.75,76.75,0,0,1-10.41-11.43,2.57,2.57,0,0,1-.91-1.85l0,0c16.67,12.83,36.12,19.15,56.24,23.8a278.22,278.22,0,0,0,42.73,6.2c7.22,0.52,14.44.74,21.69,0.74-4.74-.87-9.48-1.7-14.21-2.62-28.91-5.58-57.28-12.95-84-25.59-12-5.68-23.36-12.42-32.87-21.9a5.4,5.4,0,0,1-1.71-4.2A128.13,128.13,0,0,1,41.26,309a104,104,0,0,1,29.4-36.59,2.67,2.67,0,0,0,1.16-2.86c-1.45-9.61-2.39-19.28-3.12-29q-1.78-23.61-1.34-47.28c0.24-13.81,1-27.6,2.38-41.35a325.73,325.73,0,0,1,7.53-45.55,159.67,159.67,0,0,1,5.57-18h1.55C78.91,103,75.9,118.22,73.68,133.62c-2.12,14.74-3.37,29.55-4,44.43-0.52,11.68-.79,23.36-0.49,35a495.66,495.66,0,0,0,4.15,55.47c0.31,2.24,1.23.89,1.88,0.44A86.52,86.52,0,0,1,105,255.84c8.17-1.9,16.45-2.09,24.78-2,2.3,0,2.29,0,2.12-2.23-0.88-12.06-1.6-24.13-1.94-36.22-0.33-11.57-.39-23.14-0.11-34.7,0.4-16.06,1.35-32.09,3-48.08,2.11-20.48,5.17-40.8,10.45-60.73a149.24,149.24,0,0,1,11-29.82h1.66Zm-11,339.67c1,6.29,8.16,12.17,15.47,12.72,6.65,0.5,14.69-3.67,16.2-8.57C165,391.4,154.52,390,144.88,381.76Z" transform="translate(-28.07 -8.95)"/>
    <path class="cls-2" d="M370.92,214.65c-2.09,9.12-4.3,18.22-6.24,27.37Q360.1,263.58,357,285.4c-1.07,7.51-2,15-3.08,22.54a3.41,3.41,0,0,0,.34,2.39c5.5,9,13.07,15,23.88,16.39,1.61,0.2,2.28-.16,2.76-1.74a401,401,0,0,0,11.93-51.45h2c-1.48,9.29-3.37,18.49-5.52,27.65q-2.82,12-6.44,23.81c-0.17.55-.29,1.13-0.42,1.64,20.13,1.23,32.59,11.51,37.46,31.15,1.15-1.39,2.23-2.77,3.39-4.07,11.92-13.38,32.94-14.36,46.49-2.51,7,6.14,15.3,9.17,24.77,7,6.05-1.38,10.63-5.13,14.29-10,5.39-7.16,8-15.37,9-24.21,0.35-3.37.26-6.75,0.35-10.51a33.1,33.1,0,0,1,3.81,7.8,82.88,82.88,0,0,1,3.89,43.6,55.39,55.39,0,0,1-14,28c-8.57,9.44-19,15.77-31.53,18.12-12.06,2.26-24.19,2.61-36-1.83a32.54,32.54,0,0,1-11.33-6.89,31.83,31.83,0,0,0-5.14-4c-5.35-3.38-10-2.42-12.27,3.91a12.52,12.52,0,0,0-.81,5.24c0.4,5-1.76,9.4-3.6,13.79a92.45,92.45,0,0,1-37.35,43.62c-1.29.81-2.1,0.3-3.17-.08a45.89,45.89,0,0,1-22.48-17.28,44,44,0,0,1-3.26-5.5c-0.73-1.45-1.33-1.48-2.56-.35a3.55,3.55,0,0,1-1.42.68c-17.25,4.94-32.32,1.1-45.26-11.26-0.42-.4-1.11-0.73-0.68-1.6,2.46-4.91,4.89-9.83,7.43-14.93a61.71,61.71,0,0,0,6.15,8.2,50.4,50.4,0,0,0,11.26,9.19,1.33,1.33,0,0,0,2-.29,206.31,206.31,0,0,0,22.86-28.37,4.77,4.77,0,0,0,1-2.78c0-8.13.56-16.23,0.79-24.35a2.55,2.55,0,0,0-1-2.45,57.83,57.83,0,0,1-17.84-22c-0.25-.54-0.54-1.06-0.81-1.58a3.54,3.54,0,0,0-.35-0.42,21.82,21.82,0,0,0-1.7,5,445,445,0,0,1-20.48,55.63c-0.5,1.12-.83,2.37-2.54,2.15-0.74-.1-0.8.76-1,1.26q-3.45,7-6.86,14.06a3.1,3.1,0,0,1-2,1.84c-17.4,5.34-32.63,1.55-45.86-10.8a1.79,1.79,0,0,1-.45-2.47c14.87-29,26.47-59.23,35.85-90.37,0.37-1.23.78-2.45,1.25-3.95A37.48,37.48,0,0,1,286,328a84.25,84.25,0,0,1,9.34,38.34c0,7.36,0,14.72,0,22.07a50.48,50.48,0,0,0,5,22.18c0.16,0.32.32,0.64,0.49,0.95a1.84,1.84,0,0,0,.36.31,32.71,32.71,0,0,0,2.64-5.53,472,472,0,0,0,21-59,4.83,4.83,0,0,0,0-2.92,65.28,65.28,0,0,1-2.16-27.61A77.08,77.08,0,0,1,328.42,295a61.91,61.91,0,0,1,9.09-15.22,11.13,11.13,0,0,0,2.38-5.94c1.31-9.38,2.26-18.8,3.12-28.22,0.62-6.72.83-13.48,1.28-20.22,0.55-8.29.58-16.59,0.76-24.88h2a590.69,590.69,0,0,1-5.3,74.08c2.63-2.32,4.92-4.55,7.51-6.41a37,37,0,0,1,8.41-4.91c-9.54,13.24-11.27,27.4-5.46,42.51,0.66-3.23,1.13-6.49,1.56-9.76,2.38-18.1,5.48-36.08,9.17-54,1.92-9.29,4.19-18.49,6.39-27.72A2.31,2.31,0,0,1,370.92,214.65ZM347,423.56q0,6.94,0,13.88c0,0.73-.23,1.61,1,1.59,6.22-.07,12.47.34,18.64-0.8,20.36-3.76,35.73-22.37,35.54-43a9.34,9.34,0,0,0-9.55-9.58c-2.67,0-5.34-.05-8,0-8.19.18-16.22-.69-23.93-3.64a1.11,1.11,0,0,0-1.64.69c-3.42,6.37-7.09,12.6-11.05,18.65a4.68,4.68,0,0,0-.74,2.5C347,410.41,347,417,347,423.56Zm-1.81-17.45a1.76,1.76,0,0,0-1,1,201,201,0,0,1-20.67,25.29c-0.93,1-.56,1.24.4,1.7A52.11,52.11,0,0,0,343.61,439c1.42,0.09,1.65-.46,1.64-1.71,0-8.89,0-17.78,0-26.67A21.29,21.29,0,0,0,345.2,406.11Zm2.11-7.85c3.95-5.16,7-10.77,10.11-16.32,0.54-1,0-1.28-.72-1.58a52.07,52.07,0,0,1-7.19-3.86c-0.84-.54-1.34-0.65-1.39.66C347.87,384.19,347.58,391.23,347.3,398.26Z" transform="translate(-28.07 -8.95)"/>
    <path class="cls-2" d="M248.51,286.17a135.47,135.47,0,0,1,17,14.16A115.45,115.45,0,0,1,280.17,318a3.32,3.32,0,0,1,.66,3.1A552.39,552.39,0,0,1,246,411.25c-3,6-3.32,6.26-10,7.42a44.55,44.55,0,0,1-35.18-8.24c-2.72-2-2.73-2-1-5,16-27.78,28.62-57,38.88-87.37,3.34-9.87,6.39-19.83,9.24-29.84C248.06,287.63,248.25,287,248.51,286.17Z" transform="translate(-28.07 -8.95)"/>
    <path class="cls-2" d="M225.66,447.55c-4,6.3-7.83,12.11-11.89,17.83,1.82,0.55,1.85.57,2.79-.84,3.4-5.07,6.86-10.11,10.13-15.26,0.95-1.49,1.43-1.36,2.55-.27a45.44,45.44,0,0,0,21.9,11.94,46.06,46.06,0,0,0,20.64,0c0.75-.17,1.5-0.36,2.25-0.53a1.49,1.49,0,0,1,.44.08,15.48,15.48,0,0,1-2.25,3.55c-2.09,3-4.27,6-6.34,9a2.31,2.31,0,0,1-2.52,1.14A825,825,0,0,1,173,457.44c-2.19-.55-4.36-1.15-6.55-1.66-1-.24-1.39-0.5-0.57-1.46q6.75-7.93,12.79-16.41c0.79-1.11,1.25-.77,2-0.08a46.1,46.1,0,0,0,29.61,11.83A48.91,48.91,0,0,0,225.66,447.55Z" transform="translate(-28.07 -8.95)"/>
    <path class="cls-2" d="M277.39,459.85a2.22,2.22,0,0,0,1.17,1.65c15.17,9.43,30.81,10.35,46.93,2.58,1-.5,1.43-0.94,2.28.64,1.72,3.19,4.79,5.21,8.15,6.61a19.81,19.81,0,0,0,22.41-5.27c1.21-1.36,1.12-2.88,1.25-4.7a66.18,66.18,0,0,0,10.67,5.29,64.24,64.24,0,0,1-10.48,5,93.22,93.22,0,0,1-35.47,6.53c-9.62-.08-19.24,0-28.86-0.15a137.44,137.44,0,0,1-24.88-2.91l-0.35-.08c-3.11-.55-3.08-0.53-1.19-3.2C271.78,467.95,274.51,464,277.39,459.85Z" transform="translate(-28.07 -8.95)"/>
    <path class="cls-2" d="M356,458.67l1.05,0.79c2.6,1.88,2.61,2,.68,4.48a17.72,17.72,0,0,1-29.47-1.55c-0.74-1.19-1.25-1.12-2.33-.55-15.83,8.29-31.31,7.51-46.47-1.82-1.32-.81-1.44-1.4-0.57-2.71,2.08-3.1,4-6.32,5.9-9.52,0.58-1,.89-1.35,2.06-0.5,13,9.47,27.23,11.95,42.64,7.14a2,2,0,0,1,2.54.7,19.49,19.49,0,0,0,22.42,5.59C355.27,460.37,356.13,460.07,356,458.67Z" transform="translate(-28.07 -8.95)"/>
    <path class="cls-2" d="M331,450.57a1.48,1.48,0,0,1-1.21,1.93c-15.13,5-29.11,2.67-42-6.66a1.5,1.5,0,0,1-.55-2.34c2-3.43,3.92-6.9,5.75-10.42,0.68-1.31,1.13-1.07,2-.23a45.2,45.2,0,0,0,17.07,10.63,45.76,45.76,0,0,0,29.51.38c1.34-.43,2-0.37,2.75,1A45.42,45.42,0,0,0,354.08,457c1.45,1.29,1.42,1.35-.44,2.09a17.68,17.68,0,0,1-21.65-7C331.77,451.74,331.54,451.41,331,450.57Z" transform="translate(-28.07 -8.95)"/>
    <path class="cls-2" d="M283.57,446.37l-6.91,11a2.35,2.35,0,0,1-1.53.83c-17.22,5-32.29,1.21-45.31-11-0.93-.88-0.86-1.57-0.23-2.59q3.09-5,6-10.08c0.65-1.14,1-1.24,2-.28a46.33,46.33,0,0,0,43.7,12.34A3.44,3.44,0,0,1,283.57,446.37Z" transform="translate(-28.07 -8.95)"/>
    <path class="cls-2" d="M291.66,431.8c-2,3.67-4,7.35-6.1,11a3.56,3.56,0,0,1-2.34,1.48q-25.73,6.87-44.83-11.68a1.71,1.71,0,0,1-.32-2.46c1.78-3.14,3.53-6.3,5.16-9.53,0.64-1.26,1.05-1,1.85-.22a45.71,45.71,0,0,0,17.23,10.69,46.23,46.23,0,0,0,27.82.86A1.69,1.69,0,0,1,291.66,431.8Z" transform="translate(-28.07 -8.95)"/>
    <path class="cls-2" d="M233.68,433.67a2.35,2.35,0,0,1-.62,1.61c-0.88,1.54-1.79,3.07-2.69,4.6-3.24,5.56-3.2,5.71-9.49,7-14.55,3-27.45-.6-38.78-10.13-1.29-1.09-1.31-1.84-.31-3.17,2.13-2.84,4.12-5.8,6-8.81,0.86-1.36,1.33-1.62,2.7-.46a45.79,45.79,0,0,0,31.63,11.09,68.94,68.94,0,0,0,11.58-1.71Z" transform="translate(-28.07 -8.95)"/>
    <path class="cls-2" d="M241.87,419.29l-3.65,6.85c-3,5.64-3,5.67-9.34,6.76-13.7,2.37-26-.84-36.82-9.51-0.32-.26-0.6-0.57-0.94-0.81-1-.68-1-1.35-0.35-2.37,1.91-2.93,3.76-5.89,5.5-8.92,0.73-1.27,1.24-1.27,2.32-.4a45.3,45.3,0,0,0,18.34,9,46.48,46.48,0,0,0,23-.39A2.73,2.73,0,0,1,241.87,419.29Z" transform="translate(-28.07 -8.95)"/>
    <path class="cls-2" d="M309.43,116.86h2c0.09,11-.42,22-0.85,33.07-0.41,10.48-1.14,20.94-2.08,31.38q-1.67,18.38-4.11,36.69A710.35,710.35,0,0,1,285,313c-0.35,1.25-.78,2.49-1.05,3.76-0.21,1-.75,1.39-1.63,1.11s-0.34-1.09-.19-1.6q6.4-22.64,11.2-45.67,4.05-19.37,7-38.93,2.35-15.27,4.12-30.6c0.93-8.05,1.62-16.14,2.3-24.22,1.11-13.17,1.68-26.37,2.23-39.57C309.34,130.5,309.11,123.68,309.43,116.86Z" transform="translate(-28.07 -8.95)"/>
    <path class="cls-2" d="M383.32,173.63c-0.63.72-1.2,1.53-2.29,1.59,8.71-25.18,19.19-49.5,34.86-71.28,2.07-2.88,4.35-5.63,6.53-8.44h1.21a2.72,2.72,0,0,1-.88,2.22c-16.7,20.42-27.54,44-36.74,68.41a5.12,5.12,0,0,0-.17.86h0a18,18,0,0,0-2.15,6.09l0,0C383.35,173.08,383.38,173.38,383.32,173.63Z" transform="translate(-28.07 -8.95)"/>
    <path class="cls-2" d="M430.11,255.67c2.69,0,3.5,1.22,3.31,4a8,8,0,0,1-8.84,7.85,2.66,2.66,0,0,1-2.56-3.28c0.25-2.39.73-4.65,2.63-6.38A7.92,7.92,0,0,1,430.11,255.67Z" transform="translate(-28.07 -8.95)"/>
    <path class="cls-2" d="M405.8,265.38a2.67,2.67,0,1,1-2.74-2.6A2.59,2.59,0,0,1,405.8,265.38Z" transform="translate(-28.07 -8.95)"/>
    <path class="cls-2" d="M244.7,45.6c2.66-.22,4,1.54,3.36,4.71-0.91,4.6-4.54,7.69-9,7.07a2.54,2.54,0,0,1-2.37-2.26,8.68,8.68,0,0,1,5.23-9A7.27,7.27,0,0,1,244.7,45.6Z" transform="translate(-28.07 -8.95)"/>
    <path class="cls-2" d="M220.51,55.45a2.67,2.67,0,1,1-2.6-2.74A2.59,2.59,0,0,1,220.51,55.45Z" transform="translate(-28.07 -8.95)"/>
    <path class="cls-2" d="M346.25,99c2.69-.22,4,1.57,3.37,4.71-0.92,4.61-4.54,7.69-9,7.07a2.54,2.54,0,0,1-2.37-2.25,8.68,8.68,0,0,1,5.23-9A7.27,7.27,0,0,1,346.25,99Z" transform="translate(-28.07 -8.95)"/>
    <path class="cls-2" d="M322.06,108.72a2.67,2.67,0,1,1-2.74-2.6A2.59,2.59,0,0,1,322.06,108.72Z" transform="translate(-28.07 -8.95)"/>
    <path class="cls-2" d="M126.07,36.74a7.88,7.88,0,0,1-7.78-6.67c-0.69-4.7,1.36-6.34,5.91-4.71,3.46,1.24,6,5.58,5.36,9.11C129.28,36,128.17,36.72,126.07,36.74Z" transform="translate(-28.07 -8.95)"/>
    <path class="cls-2" d="M151,34.06a2.67,2.67,0,1,1-2.63-2.71A2.59,2.59,0,0,1,151,34.06Z" transform="translate(-28.07 -8.95)"/>
    <path class="cls-2" d="M393.43,90.14a7.85,7.85,0,0,1-7.89-6.53c-0.11-.7-0.2-1.4-0.28-2.11a2.65,2.65,0,0,1,2.54-3.15,7.82,7.82,0,0,1,8.72,6.94c0,0.35.08,0.7,0.14,1.05C397.07,88.93,396.09,90.08,393.43,90.14Z" transform="translate(-28.07 -8.95)"/>
    <path class="cls-2" d="M412.93,87.43a2.67,2.67,0,1,1,2.67,2.67A2.59,2.59,0,0,1,412.93,87.43Z" transform="translate(-28.07 -8.95)"/>
    <path class="cls-2" d="M240.14,145.33a7.87,7.87,0,0,1-7.82-6.62c-0.73-4.77,1.42-6.45,6-4.71a8.83,8.83,0,0,1,5.25,9C243.33,144.56,242.23,145.3,240.14,145.33Z" transform="translate(-28.07 -8.95)"/>
    <path class="cls-2" d="M262.42,145.28a2.67,2.67,0,1,1,2.64-2.7A2.59,2.59,0,0,1,262.42,145.28Z" transform="translate(-28.07 -8.95)"/>
    <path class="cls-2" d="M54.83,83a7.75,7.75,0,0,1-7.73-6.48C46.86,74.94,46,73,47.8,71.8c1.65-1.12,3.53-.72,5.28-0.08a8.79,8.79,0,0,1,5.22,9C58,82.27,56.92,83,54.83,83Z" transform="translate(-28.07 -8.95)"/>
    <path class="cls-2" d="M79.77,80.37a2.67,2.67,0,1,1-5.34-.14A2.67,2.67,0,0,1,79.77,80.37Z" transform="translate(-28.07 -8.95)"/>
    <path class="cls-2" d="M377.49,194.54c-3.1-.1-3.78-1-3.42-4.35,0.52-4.72,3.91-7.73,8.43-7.5a2.76,2.76,0,0,1,2.88,3.37c-0.61,5.09-3,7.87-7.11,8.4C377.93,194.51,377.58,194.53,377.49,194.54Z" transform="translate(-28.07 -8.95)"/>
    <path class="cls-2" d="M357.69,192.43A2.67,2.67,0,1,1,355,189.8,2.59,2.59,0,0,1,357.69,192.43Z" transform="translate(-28.07 -8.95)"/>
  </g>
</svg>
