<?xml version="1.0" encoding="utf-8"?>
<!-- Generator: Adobe Illustrator 19.2.0, SVG Export Plug-In . SVG Version: 6.00 Build 0)  -->
<svg version="1.1" id="Layer_1" xmlns="http://www.w3.org/2000/svg" xmlns:xlink="http://www.w3.org/1999/xlink" x="0px" y="0px"
	 width="59.9px" height="9px" viewBox="0 0 59.9 9" style="enable-background:new 0 0 59.9 9;" xml:space="preserve">
<style type="text/css">
	.st0{fill:#4A5462;}
</style>
<title>icon_barcode</title>
<path class="st0" d="M0.5,9H0V0h0.5V9z M1.5,9H1.1V0h0.5C1.5,0,1.5,9,1.5,9z M2.2,0h1.6v9H2.2V0z M4.3,0h1.6v9H4.3V0z M8,9H7.6V0H8
	L8,9L8,9z"/>
<path class="st0" d="M8.6,0h1.5v9H8.6V0z M11.3,9h-0.5V0h0.5V9z M11.9,0h1.5v9h-1.5V0z M14.5,9H14V0h0.5C14.5,0,14.5,9,14.5,9z
	 M16.7,9h-0.5V0h0.5C16.7,0,16.7,9,16.7,9z"/>
<path class="st0" d="M17.3,0h1.5v9h-1.5V0z M19.9,9h-0.5V0h0.5L19.9,9L19.9,9z M20.5,0h1.5v9h-1.5L20.5,0L20.5,0z M23.1,9h-0.5V0
	h0.5L23.1,9L23.1,9z M25.3,9h-0.4V0h0.4V9z"/>
<path class="st0" d="M26.4,9h-0.5V0h0.5L26.4,9L26.4,9z M27,0h1.5v9H27L27,0L27,0z M29.6,9h-0.5V0h0.5L29.6,9L29.6,9z M30.7,9h-0.4
	V0h0.5L30.7,9L30.7,9z M32.4,0h1.5v9h-1.5L32.4,0L32.4,0z"/>
<path class="st0" d="M35,9h-0.5V0H35V9z M35.6,0h1.5v9h-1.5V0z M37.8,0h1.5v9h-1.5L37.8,0L37.8,0z M40.4,9H40V0h0.5V9z M42.6,9h-0.5
	V0h0.5V9z"/>
<path class="st0" d="M43.2,0h1.5v9h-1.5V0z M45.8,9h-0.5V0h0.5C45.8,0,45.8,9,45.8,9z M46.9,9h-0.5V0h0.5V9z M49.1,9h-0.5V0h0.5V9z
	 M49.7,0h1.6v9h-1.6V0z"/>
<path class="st0" d="M51.8,0h1.5v9h-1.5V0z M54.5,9H54V0h0.5V9z M55.5,9h-0.5V0h0.5C55.5,0,55.5,9,55.5,9z M56.2,0h1.6v9h-1.6
	C56.2,9,56.2,0,56.2,0z M59.9,9h-0.5V0h0.5V9z"/>
</svg>
