<?xml version="1.0" encoding="utf-8"?>
<!-- Generator: Adobe Illustrator 16.0.0, SVG Export Plug-In . SVG Version: 6.00 Build 0)  -->
<!DOCTYPE svg PUBLIC "-//W3C//DTD SVG 1.1//EN" "http://www.w3.org/Graphics/SVG/1.1/DTD/svg11.dtd">
<svg version="1.1" id="Layer_1" xmlns="http://www.w3.org/2000/svg" xmlns:xlink="http://www.w3.org/1999/xlink" x="0px" y="0px"
	 width="20px" height="16.4px" viewBox="0 0 20 16.4" enable-background="new 0 0 20 16.4" xml:space="preserve">
<g enable-background="new    ">
	<path fill="#818F9E" d="M17.979,13.966c-0.18,0.172-0.355,0.172-0.527,0l-3.656-3.656c-0.875,0.766-1.898,1.148-3.07,1.148
		c-1.297,0-2.402-0.457-3.316-1.371S6.037,8.067,6.037,6.77s0.457-2.402,1.371-3.316s2.02-1.371,3.316-1.371
		s2.402,0.457,3.316,1.371s1.371,2.02,1.371,3.316c0,1.125-0.359,2.125-1.078,3l3.633,3.68
		C18.154,13.622,18.158,13.794,17.979,13.966z M14.686,6.77c0-1.094-0.387-2.023-1.16-2.789s-1.703-1.148-2.789-1.148
		S8.721,3.216,7.947,3.981s-1.16,1.695-1.16,2.789s0.387,2.023,1.16,2.789s1.703,1.148,2.789,1.148s2.016-0.383,2.789-1.148
		S14.686,7.864,14.686,6.77z"/>
</g>
</svg>
