<?xml version="1.0" encoding="utf-8"?>
<!-- Generator: Adobe Illustrator 16.0.0, SVG Export Plug-In . SVG Version: 6.00 Build 0)  -->
<!DOCTYPE svg PUBLIC "-//W3C//DTD SVG 1.1//EN" "http://www.w3.org/Graphics/SVG/1.1/DTD/svg11.dtd">
<svg version="1.1" id="Layer_1" xmlns="http://www.w3.org/2000/svg" xmlns:xlink="http://www.w3.org/1999/xlink" x="0px" y="0px"
	 width="323px" height="50px" viewBox="0 0 323 50" enable-background="new 0 0 323 50" xml:space="preserve">
<title>toolpar_logo</title>
<g>
	<g>
		<path fill="#A0A0A0" d="M263.29,10.087c-0.975-0.863-2.232-1.517-3.777-1.957c-1.543-0.441-3.437-0.662-5.679-0.662h-14.997
			v36.721h8.271V33.052h6.286c4.484,0,7.719-0.863,9.703-2.592c1.985-1.728,2.979-4.318,2.979-7.774v-4.797
			c0-1.728-0.221-3.243-0.662-4.549C264.972,12.036,264.264,10.95,263.29,10.087z M257.804,21.858c0,1.323-0.285,2.325-0.854,3.005
			c-0.571,0.681-1.756,1.021-3.557,1.021h-6.286V14.801h6.286c1.727,0,2.895,0.313,3.501,0.938c0.606,0.626,0.909,1.599,0.909,2.923
			V21.858z M277.322,7.468h-8.271v36.721h22.826v-7.333h-14.556V7.468z M318.563,29.356c-0.147-1.213-0.57-2.232-1.268-3.06
			c-0.699-0.827-1.746-1.544-3.143-2.15c-1.398-0.606-3.328-1.204-5.79-1.792c-1.434-0.33-2.556-0.615-3.363-0.854
			c-0.81-0.238-1.406-0.515-1.792-0.827c-0.386-0.312-0.616-0.717-0.689-1.213c-0.074-0.496-0.109-1.186-0.109-2.067
			c0-0.661,0.063-1.214,0.192-1.654c0.128-0.44,0.358-0.79,0.688-1.048c0.332-0.256,0.791-0.432,1.379-0.523
			s1.342-0.138,2.261-0.138c1.654,0,3.243,0.083,4.77,0.248c1.524,0.165,3.335,0.433,5.431,0.8l0.827-6.947
			c-2.06-0.441-4.024-0.754-5.899-0.938s-3.621-0.275-5.238-0.275c-2.536,0-4.623,0.192-6.258,0.578
			c-1.637,0.387-2.932,0.992-3.887,1.82c-0.957,0.826-1.619,1.884-1.985,3.17c-0.368,1.287-0.552,2.849-0.552,4.687
			c0,1.985,0.119,3.621,0.358,4.907c0.239,1.287,0.717,2.344,1.434,3.17c0.717,0.827,1.745,1.508,3.088,2.041
			c1.341,0.533,3.115,1.038,5.321,1.516c1.506,0.331,2.674,0.625,3.5,0.883c0.828,0.257,1.443,0.551,1.848,0.882
			s0.643,0.753,0.717,1.268c0.073,0.516,0.11,1.177,0.11,1.985c0,0.771-0.064,1.406-0.192,1.902c-0.13,0.496-0.378,0.9-0.745,1.213
			c-0.368,0.313-0.882,0.523-1.544,0.634c-0.661,0.11-1.525,0.165-2.592,0.165c-1.911,0-3.73-0.165-5.458-0.496
			c-1.728-0.33-3.438-0.752-5.128-1.268l-1.378,6.396c1.579,0.735,3.419,1.315,5.514,1.737s4.208,0.634,6.341,0.634
			c2.757,0,5.008-0.221,6.754-0.661c1.746-0.441,3.115-1.121,4.107-2.041c0.992-0.918,1.672-2.049,2.041-3.391
			c0.366-1.342,0.551-2.931,0.551-4.77C318.784,32.077,318.71,30.57,318.563,29.356z"/>
	</g>
</g>
<g>
	<g>
		<path fill="#FFFFFF" d="M42.959,7.086h-9.318L20.546,25.061l7.392,18.747h9.318l-7.777-18.747L42.959,7.086z M14.397,7.086
			L7.923,43.808h8.271l6.476-36.722H14.397z M55.972,7.086L38.304,43.808h8.601l3.249-7.168h12.295l0.722,7.168h8.601L66.998,7.086
			H55.972z M53.243,29.748l6.958-15.383l1.478,15.383H53.243z M103.239,13.868l1.196-6.782H79.734l-1.196,6.782h15.439
			L73.729,37.081l-1.187,6.727h25.694l1.196-6.782H83.167L103.239,13.868z M133.058,9.705c-0.822-0.863-1.966-1.516-3.432-1.957
			c-1.467-0.441-3.32-0.662-5.563-0.662h-14.997l-6.476,36.722h8.271l1.964-11.138h6.286c4.483,0,7.87-0.863,10.16-2.592
			c2.289-1.727,3.738-4.318,4.348-7.773l0.846-4.797c0.305-1.728,0.352-3.244,0.141-4.549S133.88,10.57,133.058,9.705z
			 M126.06,18.279l-0.564,3.197c-0.233,1.324-0.695,2.326-1.385,3.006c-0.688,0.68-1.934,1.02-3.734,1.02h-6.286l1.954-11.082h6.285
			c1.728,0,2.84,0.313,3.336,0.938S126.292,16.956,126.06,18.279z M166.349,13.676c-0.278-1.342-0.884-2.545-1.816-3.611
			c-0.934-1.066-2.254-1.921-3.959-2.564c-1.705-0.643-3.846-0.965-6.418-0.965c-2.611,0-4.873,0.322-6.787,0.965
			c-1.914,0.644-3.526,1.498-4.836,2.564s-2.339,2.27-3.09,3.611c-0.752,1.342-1.25,2.711-1.496,4.107l-2.703,15.328
			c-0.246,1.396-0.23,2.766,0.047,4.107c0.279,1.342,0.885,2.546,1.817,3.611c0.933,1.066,2.243,1.922,3.931,2.564
			s3.837,0.965,6.447,0.965c2.572,0,4.825-0.322,6.758-0.965c1.934-0.643,3.555-1.498,4.863-2.564
			c1.311-1.065,2.34-2.27,3.091-3.611s1.25-2.711,1.496-4.107l2.704-15.328C166.643,16.387,166.626,15.018,166.349,13.676z
			 M158,18.5l-2.45,13.895c-0.254,1.434-0.921,2.563-2.004,3.391c-1.084,0.827-2.672,1.24-4.768,1.24s-3.539-0.413-4.33-1.24
			s-1.062-1.957-0.809-3.391l2.451-13.895c0.252-1.434,0.92-2.564,2.004-3.391c1.082-0.828,2.672-1.241,4.768-1.241
			c2.095,0,3.537,0.413,4.33,1.241C157.982,15.936,158.253,17.066,158,18.5z M184.976,6.535c-2.536,0-4.656,0.193-6.36,0.579
			s-3.106,0.992-4.208,1.819s-1.949,1.885-2.543,3.17c-0.596,1.287-1.055,2.85-1.378,4.688c-0.351,1.984-0.52,3.621-0.508,4.906
			c0.013,1.287,0.304,2.344,0.874,3.171c0.572,0.827,1.481,1.508,2.729,2.04c1.248,0.533,2.932,1.039,5.055,1.516
			c1.447,0.332,2.563,0.626,3.345,0.883c0.781,0.258,1.345,0.551,1.69,0.883c0.347,0.33,0.512,0.753,0.494,1.268
			c-0.018,0.516-0.098,1.177-0.239,1.984c-0.136,0.772-0.313,1.406-0.529,1.902s-0.536,0.901-0.958,1.213
			c-0.423,0.313-0.975,0.524-1.656,0.635c-0.681,0.109-1.555,0.165-2.62,0.165c-1.911,0-3.702-0.165-5.372-0.496
			c-1.669-0.331-3.303-0.753-4.903-1.269l-2.506,6.396c1.45,0.735,3.187,1.314,5.208,1.736c2.02,0.422,4.096,0.635,6.229,0.635
			c2.757,0,5.047-0.221,6.871-0.662c1.823-0.441,3.313-1.121,4.467-2.04s2.033-2.049,2.639-3.391
			c0.604-1.342,1.068-2.931,1.392-4.77c0.317-1.801,0.509-3.308,0.577-4.521c0.066-1.213-0.176-2.233-0.729-3.06
			c-0.553-0.827-1.475-1.544-2.764-2.15c-1.291-0.607-3.114-1.203-5.473-1.792c-1.377-0.331-2.447-0.615-3.214-0.854
			s-1.315-0.515-1.646-0.827c-0.331-0.312-0.489-0.717-0.476-1.214c0.014-0.496,0.099-1.185,0.255-2.066
			c0.116-0.662,0.277-1.213,0.484-1.654s0.498-0.791,0.874-1.048s0.866-0.432,1.471-0.524c0.604-0.091,1.366-0.137,2.285-0.137
			c1.653,0,3.229,0.082,4.726,0.248c1.495,0.165,3.259,0.432,5.29,0.799l2.052-6.947c-1.98-0.441-3.893-0.753-5.734-0.938
			C188.323,6.627,186.593,6.535,184.976,6.535z M199.104,7.086l-1.293,7.334h9.87l-5.183,29.388h8.271l5.182-29.388h9.87
			l1.293-7.334H199.104z"/>
	</g>
</g>
</svg>
