<?xml version="1.0" encoding="utf-8"?>
<!-- Generator: Adobe Illustrator 16.0.0, SVG Export Plug-In . SVG Version: 6.00 Build 0)  -->
<!DOCTYPE svg PUBLIC "-//W3C//DTD SVG 1.1//EN" "http://www.w3.org/Graphics/SVG/1.1/DTD/svg11.dtd">
<svg version="1.1" id="Layer_1" xmlns="http://www.w3.org/2000/svg" xmlns:xlink="http://www.w3.org/1999/xlink" x="0px" y="0px"
	 width="172px" height="23px" viewBox="-79.5 23.5 172 23" enable-background="new -79.5 23.5 172 23" xml:space="preserve">
<title>toolpar_logo</title>
<g>
	<g>
		<path fill="#A0A0A0" d="M66.245,29.527c-0.401-0.354-0.919-0.624-1.555-0.806s-1.415-0.273-2.338-0.273h-6.174v15.12h3.405v-4.586
			h2.588c1.846,0,3.178-0.355,3.995-1.067c0.817-0.711,1.226-1.777,1.226-3.2V32.74c0-0.712-0.09-1.336-0.272-1.873
			C66.938,30.33,66.646,29.883,66.245,29.527z M63.987,34.374c0,0.545-0.117,0.957-0.352,1.237c-0.235,0.279-0.722,0.42-1.464,0.42
			h-2.588v-4.563h2.588c0.71,0,1.192,0.13,1.442,0.387c0.249,0.257,0.374,0.658,0.374,1.203V34.374z M72.022,28.448h-3.405v15.12
			h9.398v-3.02h-5.993V28.448z M89.001,37.461c-0.061-0.499-0.235-0.919-0.522-1.26c-0.288-0.34-0.719-0.636-1.293-0.885
			c-0.576-0.251-1.371-0.496-2.384-0.738c-0.59-0.136-1.052-0.253-1.384-0.352c-0.334-0.098-0.58-0.212-0.738-0.341
			c-0.159-0.128-0.253-0.295-0.284-0.499c-0.031-0.205-0.045-0.487-0.045-0.851c0-0.272,0.026-0.5,0.079-0.682
			c0.053-0.181,0.148-0.325,0.283-0.432c0.137-0.105,0.326-0.177,0.568-0.216c0.242-0.037,0.553-0.057,0.931-0.057
			c0.681,0,1.335,0.034,1.963,0.103c0.628,0.068,1.373,0.178,2.236,0.329l0.34-2.86c-0.848-0.182-1.656-0.31-2.429-0.385
			c-0.771-0.076-1.491-0.114-2.156-0.114c-1.044,0-1.903,0.079-2.576,0.238c-0.674,0.159-1.208,0.407-1.6,0.749
			c-0.394,0.34-0.667,0.775-0.818,1.306c-0.151,0.529-0.227,1.172-0.227,1.929c0,0.817,0.049,1.491,0.147,2.021
			c0.099,0.53,0.295,0.965,0.591,1.306c0.294,0.341,0.718,0.62,1.271,0.84s1.283,0.427,2.191,0.624
			c0.62,0.137,1.101,0.257,1.441,0.363c0.341,0.106,0.594,0.226,0.76,0.363c0.167,0.136,0.265,0.31,0.295,0.521
			c0.031,0.213,0.046,0.484,0.046,0.817c0,0.318-0.027,0.579-0.079,0.783c-0.054,0.204-0.156,0.371-0.307,0.499
			c-0.152,0.13-0.363,0.216-0.636,0.261c-0.272,0.046-0.628,0.069-1.067,0.069c-0.787,0-1.536-0.069-2.247-0.205
			c-0.711-0.136-1.416-0.309-2.111-0.522l-0.568,2.634c0.651,0.303,1.408,0.541,2.271,0.715c0.862,0.174,1.732,0.262,2.61,0.262
			c1.136,0,2.062-0.092,2.78-0.273s1.283-0.461,1.691-0.84c0.409-0.378,0.688-0.843,0.84-1.396c0.151-0.553,0.227-1.206,0.227-1.964
			C89.092,38.581,89.062,37.961,89.001,37.461z"/>
	</g>
</g>
<g>
	<g>
		<path fill="#FFFFFF" d="M-24.465,28.292h-3.836l-5.391,7.399l3.043,7.719h3.836l-3.202-7.719L-24.465,28.292z M-36.223,28.292
			l-2.666,15.118h3.405l2.667-15.118H-36.223z M-19.108,28.292l-7.273,15.118h3.541l1.337-2.951h5.063l0.297,2.951h3.541
			l-1.965-15.118H-19.108z M-20.231,37.622l2.865-6.333l0.608,6.333H-20.231z M0.353,31.084l0.492-2.792H-9.324l-0.493,2.792h6.356
			l-8.336,9.557l-0.488,2.77h10.578l0.493-2.792h-6.697L0.353,31.084z M12.629,29.371c-0.339-0.355-0.81-0.625-1.414-0.807
			c-0.603-0.182-1.367-0.272-2.29-0.272H2.752L0.085,43.41h3.405L4.3,38.825h2.587c1.846,0,3.241-0.355,4.183-1.066
			c0.942-0.712,1.539-1.778,1.79-3.2l0.349-1.975c0.125-0.712,0.144-1.337,0.058-1.874C13.18,30.174,12.967,29.727,12.629,29.371z
			 M9.748,32.9l-0.232,1.317c-0.097,0.544-0.287,0.956-0.57,1.236c-0.284,0.279-0.796,0.419-1.538,0.419H4.82l0.805-4.562h2.588
			c0.71,0,1.169,0.128,1.373,0.386S9.844,32.354,9.748,32.9z M26.335,31.006c-0.115-0.553-0.364-1.048-0.748-1.487
			c-0.385-0.439-0.929-0.791-1.631-1.055c-0.702-0.265-1.583-0.398-2.642-0.398c-1.075,0-2.006,0.134-2.794,0.398
			c-0.788,0.264-1.452,0.615-1.991,1.055s-0.963,0.935-1.272,1.487c-0.309,0.552-0.515,1.115-0.616,1.689l-1.113,6.312
			c-0.101,0.575-0.095,1.139,0.02,1.691c0.114,0.552,0.364,1.048,0.748,1.485c0.384,0.44,0.923,0.792,1.618,1.057
			s1.579,0.397,2.654,0.397c1.059,0,1.986-0.133,2.782-0.397c0.796-0.265,1.463-0.616,2.002-1.057
			c0.54-0.438,0.963-0.934,1.272-1.485c0.309-0.553,0.515-1.116,0.616-1.691l1.113-6.312C26.456,32.121,26.449,31.558,26.335,31.006
			z M22.897,32.991l-1.008,5.72c-0.105,0.591-0.379,1.056-0.825,1.396c-0.446,0.341-1.1,0.511-1.963,0.511
			c-0.863,0-1.457-0.17-1.782-0.511s-0.437-0.806-0.333-1.396l1.01-5.72c0.104-0.59,0.378-1.056,0.825-1.396
			c0.445-0.34,1.1-0.511,1.963-0.511c0.862,0,1.457,0.171,1.783,0.511C22.891,31.936,23.001,32.401,22.897,32.991z M34.003,28.065
			c-1.044,0-1.917,0.08-2.619,0.239c-0.702,0.159-1.278,0.407-1.732,0.748c-0.454,0.341-0.802,0.775-1.047,1.306
			c-0.245,0.53-0.435,1.173-0.567,1.93c-0.145,0.817-0.214,1.49-0.208,2.02c0.005,0.529,0.125,0.965,0.36,1.305
			c0.235,0.341,0.609,0.621,1.123,0.84c0.514,0.221,1.207,0.429,2.081,0.626c0.596,0.135,1.055,0.257,1.377,0.362
			c0.322,0.105,0.553,0.227,0.696,0.364c0.143,0.135,0.21,0.31,0.204,0.521c-0.008,0.212-0.041,0.484-0.099,0.817
			c-0.056,0.317-0.129,0.578-0.218,0.782c-0.089,0.204-0.22,0.371-0.394,0.499c-0.174,0.13-0.401,0.216-0.682,0.262
			c-0.28,0.045-0.64,0.068-1.079,0.068c-0.787,0-1.524-0.068-2.211-0.205c-0.687-0.135-1.36-0.31-2.019-0.522l-1.032,2.635
			c0.598,0.303,1.312,0.54,2.144,0.715c0.832,0.173,1.687,0.261,2.564,0.261c1.135,0,2.078-0.091,2.829-0.272
			c0.751-0.182,1.364-0.463,1.839-0.841s0.837-0.843,1.086-1.396c0.248-0.552,0.439-1.206,0.573-1.964
			c0.131-0.74,0.209-1.36,0.238-1.861c0.027-0.498-0.072-0.919-0.3-1.259c-0.228-0.341-0.607-0.637-1.137-0.886
			c-0.532-0.251-1.283-0.495-2.253-0.738c-0.567-0.136-1.008-0.253-1.323-0.352c-0.316-0.098-0.542-0.212-0.677-0.34
			c-0.137-0.129-0.202-0.296-0.196-0.5c0.006-0.205,0.041-0.487,0.105-0.851c0.048-0.272,0.114-0.499,0.199-0.682
			c0.086-0.182,0.206-0.325,0.36-0.431c0.155-0.106,0.356-0.179,0.606-0.217c0.248-0.036,0.562-0.057,0.94-0.057
			c0.68,0,1.329,0.034,1.945,0.103c0.616,0.069,1.342,0.178,2.178,0.329l0.844-2.86c-0.815-0.182-1.602-0.31-2.36-0.386
			C35.381,28.104,34.669,28.065,34.003,28.065z M39.82,28.292l-0.533,3.02h4.063L41.217,43.41h3.405l2.133-12.099h4.063l0.533-3.02
			H39.82z"/>
	</g>
</g>
<g>
	<path fill="#FFB400" d="M-78.585,27.795l23.255,14.804h8.631l2.809-8.708c0,0-1.384-0.028-1.571-0.028c-1.376,0-5.105,0-6.992,0
		c-1.226,0-1.314,0.201-0.479,0.971c0.781,0.718,1.678,1.456,1.678,1.456h-3.835l-5.515-4.125h16.542l1.008-4.369H-78.585
		L-78.585,27.795z"/>
</g>
</svg>
