<?xml version="1.0" encoding="utf-8"?>
<!-- Generator: Adobe Illustrator 19.2.0, SVG Export Plug-In . SVG Version: 6.00 Build 0)  -->
<svg version="1.1" id="Layer_1" xmlns="http://www.w3.org/2000/svg" xmlns:xlink="http://www.w3.org/1999/xlink" x="0px" y="0px"
	 viewBox="0 0 131.6 25" style="enable-background:new 0 0 131.6 25;" xml:space="preserve">
<style type="text/css">
	.st0{fill:#FFFFFF;}
	.st1{enable-background:new    ;}
	.st2{fill:#929292;}
</style>
<title>toolpar_logo</title>
<g id="TOOLPAR_copy">
	<path class="st0" d="M0,9.9h5.6v10h5.6v-10h5.6v-5H0V9.9z M17.6,4.9v9.4l6.2,5.6h10.6v-9.4L28,4.9H17.6L17.6,4.9z M28.7,14.9h-5.6
		v-5h5.5L28.7,14.9L28.7,14.9z M35.6,4.9v9.4l6.2,5.6h10.5v-9.4l-6.3-5.6C46.1,4.9,35.6,4.9,35.6,4.9z M46.8,14.9h-5.5v-5h5.5V14.9z
		 M59.3,0h-5.6v20h11.2v-5h-5.5C59.3,15,59.3,0,59.3,0z M65.6,8.5V25h5.6v-8.5l3.9,3.5h7.3V5H69.5L65.6,8.5z M71.2,10h5.6v5h-5.6
		L71.2,10L71.2,10z M83.7,10.6V20h7.3l3.9-3.5V20h5.6V5H89.9L83.7,10.6z M94.8,15h-5.5v-5h5.6L94.8,15L94.8,15z M110.1,5l-2.8,2.4V5
		h-5.6v15h5.6V10h3.9v5l5.8-5.2V5L110.1,5L110.1,5z"/>
</g>
<g class="st1">
	<path class="st2" d="M112.7,22v-4.8h2.3c0.4,0,0.7,0,1,0.1s0.5,0.2,0.7,0.4s0.3,0.5,0.3,0.7c0,0.3-0.1,0.5-0.3,0.7
		s-0.5,0.3-0.8,0.4c0.4,0.1,0.7,0.2,1,0.4c0.2,0.2,0.3,0.5,0.3,0.8c0,0.4-0.2,0.7-0.5,0.9c-0.3,0.3-0.8,0.4-1.4,0.4H112.7z
		 M113.7,19.2h1.3c0.3,0,0.5-0.1,0.6-0.2s0.2-0.3,0.2-0.5c0-0.2-0.1-0.4-0.3-0.5c-0.2-0.1-0.4-0.2-0.6-0.2h-1.3V19.2z M113.7,21.3
		h1.4c0.3,0,0.5-0.1,0.7-0.2c0.2-0.1,0.3-0.3,0.3-0.5c0-0.2-0.1-0.4-0.3-0.5c-0.2-0.1-0.4-0.2-0.7-0.2h-1.4V21.3z"/>
	<path class="st2" d="M122,22h-3.9v-4.8h3.9v0.7h-2.8v1.3h2.2v0.7h-2.2v1.3h2.8V22z"/>
</g>
<g class="st1">
	<path class="st2" d="M125.1,22h-1.2v-4.1h-1.6v-0.7h4.3v0.7h-1.6V22z"/>
</g>
<g class="st1">
	<path class="st2" d="M131.6,22h-1.2l-0.5-1.1h-2.3l-0.5,1.1h-0.9l2-4.8h1.3L131.6,22z M129.6,20.2l-0.9-2.1l-0.9,2.1H129.6z"/>
</g>
</svg>
