<svg id="Layer_1" data-name="Layer 1" xmlns="http://www.w3.org/2000/svg" viewBox="0 0 112.99 53.99"><defs><style>.cls-1{fill:#fcb415;}</style></defs><title>toolpar_horse</title><g id="Hourse"><path class="cls-1" d="M41.14,38.09c-0.94-.53-1.52-1.85-2.09-2.92-1.43-2.67-3.18-5.06-6.11-6a21.37,21.37,0,0,0-5.77-1c-3.36-.11-6.73.18-10.1,0.15a4.7,4.7,0,0,1-4.9-3.6,1.37,1.37,0,0,0-.61-0.38v2.48c1.48,4.38,4.46,6.43,9,6.27a21.66,21.66,0,0,1,4.42.33c3.07,0.52,5.12,2.68,7.23,4.82a21.73,21.73,0,0,0,4.51,3.41,5.11,5.11,0,0,0,4.88.07,1.81,1.81,0,0,0,.77-1.28A2.09,2.09,0,0,0,41.14,38.09Zm83.17-1.56c-1.46-1.69-3-3.32-4.41-5-0.49-.58-1.16-1.18-0.71-2.17a1.67,1.67,0,0,0-.61-0.81c-1.17-1.07-2.4-2.07-3.54-3.17s-0.83-2.46.67-3.08c0.32-.13.66-0.21,1-0.31l0-.35a7.8,7.8,0,0,0-1.63.18,15,15,0,0,0-2,1l-1.18-4.55-0.29-.05-1.42,4.38A5.48,5.48,0,0,0,106,19.65c-1.95-.34-3.61-1.08-4.3-3.26l-0.41.07L101,20.34l-3.37-2.81L98.79,21l-5.2-1.65,1,3.56-4.39-3,1.14,3.23L82.49,21.8,82.24,22l3.66,3.47c-2.49.94-4.94,1.6-7.89,0.7,1.3,2.08,3.3,2.56,5,3.65a12.31,12.31,0,0,1-8.44,2.45c-2.9-.34-5.76-1.06-8.62-1.67-4.29-.91-8.58-1.93-13-1.37s-7.64,2.63-9.25,6.9c-1.75,4.64-.14,8.56,3,12A8.49,8.49,0,0,0,53,51.06,19.23,19.23,0,0,1,64.61,55a36.62,36.62,0,0,0,12.68,5.82,4.27,4.27,0,0,1,3.22,3.3c0.16,0.58.3,1.17,0.45,1.78,1.42-.93,1.93-0.75,2.29.89a32.18,32.18,0,0,1,.35,3.64A52.75,52.75,0,0,0,89,69.14c2-.67,2.22-2.1.56-3.45-1.15-.94-2.47-1.68-3.77-2.54l0.46-1c-2.94-1.22-5.81-2.38-8.65-3.59a4.85,4.85,0,0,1-2.17-1.23c-1.25-1.86-3.14-2.59-4.94-3.6a5.66,5.66,0,0,1-2.24-2.26C66.57,48,65,44.39,63.42,40.83a2.34,2.34,0,0,1-.09-0.62,1.58,1.58,0,0,1,.89.78c0.58,1.08,1.12,2.19,1.7,3.28a1.82,1.82,0,0,0,.59.73c1.85,1.05,3.74,2,5.59,3.1a20.2,20.2,0,0,0,10.18,3c1.75,0,2,.32,1.5,2.11a20.54,20.54,0,0,1-1,2.76c-0.45,1-1,2-1.54,3.09,1,0.44,1.94.9,2.91,1.25A1.06,1.06,0,0,0,85,60C86.65,58,88.29,56,89.9,54c0.84-1,1.24-2.33,2.75-2.92,2-.77,2.49-2.89,2.53-4.86a8,8,0,0,1,3.06-6,26.74,26.74,0,0,1,8.52-5.35c-1.15-2.14-.33-4,0.75-5.71a1.61,1.61,0,0,1,.66-0.35,2.6,2.6,0,0,1,0,.75c-0.08.31-.28,0.59-0.39,0.9-0.71,2-.35,3.92,1.18,5a9,9,0,0,0,3.5,1.82A12.43,12.43,0,0,1,117.85,40a18.5,18.5,0,0,0,2.2,1.51,7.35,7.35,0,0,0,1.68.47V40.37c0.78,0.16,1.51.55,1.83,0.32a3.29,3.29,0,0,0,.73-1.67,7.35,7.35,0,0,0,.27-1.62A1.32,1.32,0,0,0,124.31,36.54Zm-9.09-6.8c0.53-1.27,1.14-1.25,2.3,0h-2.3ZM101.65,53.86C100,52.69,99.22,51,98.41,49.2c-0.57-1.23-1.17-2.46-1.86-3.9-0.95,2.44-.53,5.19-3.12,6.51l3.74,2.48a6.45,6.45,0,0,1-6,1.48,1.47,1.47,0,0,0-1.08,0c-1,1-1.94,2.15-2.89,3.24a6.48,6.48,0,0,0,2.23-.31,9.49,9.49,0,0,1,5.69,0,6,6,0,0,0,6.71-2C102.74,55.64,102.79,54.64,101.65,53.86Zm-36.06,2.2c-2.14,2.4-5.27,1.67-8.06,2.65l1.65,1.09c-1.93.95-3.79,0.42-5.56,0.57-0.64,2,.18,4.44,2,5,2.82,0.9,3.59-1.7,4.66-3.28,0.73,0,1.53.18,1.88-.14,1.69-1.5,3.27-3.14,5-4.83Zm11.17,6.15a4.16,4.16,0,0,1-5,.32A4.76,4.76,0,0,0,71,62.21l-0.36,1.89-0.76-.56c-3-2.22-4.51-1.52-5,2.28a8.52,8.52,0,0,0,0,1.11,0.89,0.89,0,0,0,1.16,1,11.58,11.58,0,0,0,3-.75,2.22,2.22,0,0,1,2.63.25,1.32,1.32,0,0,0,1.2.06c1.26-2.14,3.38-2.95,5.41-3.93a3.57,3.57,0,0,0,.88-1,4,4,0,0,0-1.23-.79A1.87,1.87,0,0,0,76.76,62.21ZM80,53.62c-0.06-.32-0.14-0.64-0.22-1-0.28-1.12-.79-1.38-1.72-0.72a12.89,12.89,0,0,0-1.7,1.72,0.86,0.86,0,0,0,.26,1.5l4.27,2.68,1.47-3C80.44,55.49,80.33,55.43,80,53.62ZM66.78,45.79L66.47,46c0.91,2,1.79,4,2.77,6a2,2,0,0,0,1.18,1,1.65,1.65,0,0,0,1.19-.51,1.06,1.06,0,0,0-.05-0.93c-0.81-1.34-1.74-2.62-2.51-4A3.47,3.47,0,0,0,66.78,45.79Z" transform="translate(-11.56 -16.38)"/></g></svg>