<?xml version="1.0" encoding="utf-8"?>
<!-- Generator: Adobe Illustrator 19.2.0, SVG Export Plug-In . SVG Version: 6.00 Build 0)  -->
<svg version="1.1" id="Layer_1" xmlns="http://www.w3.org/2000/svg" xmlns:xlink="http://www.w3.org/1999/xlink" x="0px" y="0px"
	 width="246.3px" height="49px" viewBox="0 0 246.3 49" style="enable-background:new 0 0 246.3 49;" xml:space="preserve">
<style type="text/css">
	.st0{fill:#FFFFFF;}
	.st1{enable-background:new    ;}
</style>
<title>toolpar_hero_logo</title>
<g id="TOOLPAR_copy_Clipping_Path">
	<path class="st0" d="M0,19.5h11v19.7h11V19.5h11.1V9.8H0V19.5z M34.6,9.8v18.4l12.3,11h20.8V20.8l-12.4-11L34.6,9.8L34.6,9.8z
		 M56.6,29.4h-11v-9.8h11V29.4z M70.2,9.8v18.4l12.3,11h20.8V20.8l-12.4-11L70.2,9.8L70.2,9.8z M92.2,29.4h-11v-9.8h11V29.4z
		 M116.9,0h-11v39.2h22v-9.8h-11L116.9,0L116.9,0z M129.3,16.6V49h11.1V32.4l7.7,6.9h14.3V9.8h-25.4L129.3,16.6z M140.4,19.6h11v9.8
		h-11V19.6z M165,20.8v18.4h14.4l7.6-6.8v6.8h11.1V9.8h-20.7L165,20.8z M187,29.4h-11v-9.8h11V29.4z M217.1,9.8l-5.4,4.8V9.8h-11.1
		v29.5h11.1V19.6h7.7v9.7l11.4-10.1V9.8L217.1,9.8L217.1,9.8z"/>
</g>
<g id="line">
	<polygon class="st0" points="13.3,44 19.3,49 137.3,49 137.3,44 	"/>
</g>
<g class="st1">
	<path class="st0" d="M241.6,10.3c-1.1,0-2.1-0.4-2.9-1.2s-1.2-1.8-1.2-2.9c0-1.1,0.4-2.1,1.2-2.9s1.8-1.2,2.9-1.2s2.1,0.4,2.9,1.2
		s1.2,1.8,1.2,2.9c0,1.1-0.4,2.1-1.2,2.9C243.8,9.9,242.8,10.3,241.6,10.3z M241.6,9.3c0.9,0,1.6-0.3,2.3-0.9
		c0.6-0.6,0.9-1.4,0.9-2.3c0-0.9-0.3-1.6-0.9-2.3c-0.6-0.6-1.4-0.9-2.3-0.9s-1.6,0.3-2.3,0.9c-0.6,0.6-0.9,1.4-0.9,2.3
		c0,0.9,0.3,1.6,0.9,2.3C240,9,240.7,9.3,241.6,9.3z M243.7,8.4h-1.6l-0.7-1.7H241v1.7h-1.5V3.9h2.4c0.5,0,0.9,0.1,1.2,0.4
		s0.5,0.6,0.5,1c0,0.5-0.3,0.9-0.8,1.2L243.7,8.4z M241,5.7h0.5c0.4,0,0.6-0.1,0.6-0.4c0-0.3-0.2-0.4-0.5-0.4H241V5.7z"/>
</g>
</svg>
