<?xml version="1.0" encoding="utf-8"?>
<!-- Generator: Adobe Illustrator 19.2.0, SVG Export Plug-In . SVG Version: 6.00 Build 0)  -->
<svg version="1.1"
	 id="svg2" xmlns:cc="http://creativecommons.org/ns#" xmlns:dc="http://purl.org/dc/elements/1.1/" xmlns:inkscape="http://www.inkscape.org/namespaces/inkscape" xmlns:rdf="http://www.w3.org/1999/02/22-rdf-syntax-ns#" xmlns:sodipodi="http://sodipodi.sourceforge.net/DTD/sodipodi-0.dtd" xmlns:svg="http://www.w3.org/2000/svg"
	 xmlns="http://www.w3.org/2000/svg" xmlns:xlink="http://www.w3.org/1999/xlink" x="0px" y="0px" width="421px" height="275px"
	 viewBox="0 0 421 275" style="enable-background:new 0 0 421 275;" xml:space="preserve">
<style type="text/css">
	.st0{fill:#FFFFFF;}
</style>
<g id="layer1" transform="translate(10.519826,-241.38111)" inkscape:groupmode="layer" inkscape:label="Layer 1">
	<path id="path85487" class="st0" d="M375.4,445.9c-19.4,0-35.2,15.8-35.2,35.1c0,19.4,15.8,35.1,35.2,35.1
		c19.3,0,35.1-15.8,35.1-35.1C410.5,461.6,394.7,445.9,375.4,445.9"/>
	<path id="path85491" class="st0" d="M253.7,443.4l-3.5,1.4c-2.4,0-4.2-0.6-5.3-1.9c-1.2-1.3-2.3-4-3.4-8.2l-33.7-129.1h-65.9
		l-30.9,129.1c-1.1,4.6-2.3,7.5-3.7,8.9l-5,2.1c-4.3,0-7.5-3.7-9.5-11L49.9,305.5h-60.4l56.7,168.5c3.4,10,7.2,18,11.2,23.9
		c4,5.9,9.4,10.4,16.3,13.7c7,3.2,15.7,4.8,26.4,4.8c27.8,0,45.5-14.5,53.1-43.5l22.9-87.6l24,86.2c2.6,9,6.2,16.9,10.7,23.5
		c4.5,6.6,10.2,11.9,17,15.7c6.9,3.8,14.9,5.7,24.1,5.7c6.3,0,12.8-1.8,19.8-5.4c6.9-3.5,13.3-8.8,19.3-15.8
		c5.9-7,10.5-15.1,13.7-24.3l78.6-229.5H324l-67,195.3C255.8,440.3,254.6,442.5,253.7,443.4"/>
	<path id="path85495" class="st0" d="M375.4,516.1c-19.4,0-35.2-15.8-35.2-35.1c0-19.4,15.8-35.1,35.2-35.1
		c19.3,0,35.1,15.8,35.1,35.1S394.7,516.1,375.4,516.1"/>
</g>
</svg>
