<?xml version="1.0" encoding="utf-8"?>
<!-- Generator: Adobe Illustrator 16.0.0, SVG Export Plug-In . SVG Version: 6.00 Build 0)  -->
<!DOCTYPE svg PUBLIC "-//W3C//DTD SVG 1.1//EN" "http://www.w3.org/Graphics/SVG/1.1/DTD/svg11.dtd">
<svg version="1.1" id="Слой_1" xmlns="http://www.w3.org/2000/svg" xmlns:xlink="http://www.w3.org/1999/xlink" x="0px" y="0px"
	 width="184.946px" height="50px" viewBox="0 0 184.946 50" enable-background="new 0 0 184.946 50" xml:space="preserve">
<g>
	<path d="M5.088,43.806V6.195h0.66v37.61H5.088z M7.428,43.806V6.195h0.66v37.61H7.428z M8.748,43.806V6.195h1.68v37.61H8.748z
		 M11.088,43.806V6.195h1.68v37.61H11.088z M13.428,43.806V6.195h0.66v37.61H13.428z"/>
	<path d="M14.748,43.806V6.195h1.68v37.61H14.748z M17.087,43.806V6.195h1.68v37.61H17.087z M19.428,43.806V6.195h0.66v37.61H19.428
		z M21.768,43.806V6.195h0.66v37.61H21.768z M23.087,43.806V6.195h0.66v37.61H23.087z"/>
	<path d="M24.408,43.806V6.195h0.66v37.61H24.408z M25.728,43.806V6.195h1.68v37.61H25.728z M28.068,43.806V6.195h0.66v37.61H28.068
		z M29.388,43.806V6.195h0.66v37.61H29.388z M31.728,43.806V6.195h1.68v37.61H31.728z"/>
	<path d="M34.068,43.806V6.195h0.66v37.61H34.068z M35.388,43.806V6.195h0.66v37.61H35.388z M37.728,43.806V6.195h1.68v37.61H37.728
		z M40.068,43.806V6.195h1.68v37.61H40.068z M42.408,43.806V6.195h0.66v37.61H42.408z"/>
	<path d="M43.728,43.806V6.195h0.66v37.61H43.728z M45.047,43.806V6.195h0.66v37.61H45.047z M47.388,43.806V6.195h1.68v37.61H47.388
		z M49.728,43.806V6.195h1.68v37.61H49.728z M52.067,43.806V6.195h0.66v37.61H52.067z"/>
	<path d="M53.387,43.806V6.195h0.66v37.61H53.387z M54.707,43.806V6.195h0.66v37.61H54.707z M57.047,43.806V6.195h1.68v37.61H57.047
		z M59.387,43.806V6.195h1.68v37.61H59.387z M61.727,43.806V6.195h0.66v37.61H61.727z"/>
	<path d="M63.047,43.806V6.195h0.66v37.61H63.047z M64.367,43.806V6.195h0.66v37.61H64.367z M66.708,43.806V6.195h1.68v37.61H66.708
		z M69.047,43.806V6.195h1.68v37.61H69.047z M71.387,43.806V6.195h0.66v37.61H71.387z"/>
	<path d="M72.708,43.806V6.195h0.66v37.61H72.708z M74.027,43.806V6.195h0.66v37.61H74.027z M76.368,43.806V6.195h1.68v37.61H76.368
		z M78.708,43.806V6.195h1.68v37.61H78.708z M81.047,43.806V6.195h0.66v37.61H81.047z"/>
	<path d="M82.367,43.806V6.195h0.66v37.61H82.367z M83.687,43.806V6.195h0.66v37.61H83.687z M86.027,43.806V6.195h1.68v37.61H86.027
		z M88.367,43.806V6.195h1.68v37.61H88.367z M90.707,43.806V6.195h0.66v37.61H90.707z"/>
	<path d="M92.027,43.806V6.195h0.66v37.61H92.027z M93.347,43.806V6.195h0.66v37.61H93.347z M95.687,43.806V6.195h1.68v37.61H95.687
		z M98.027,43.806V6.195h1.68v37.61H98.027z M100.367,43.806V6.195h0.66v37.61H100.367z"/>
	<path d="M101.687,43.806V6.195h0.66v37.61H101.687z M103.007,43.806V6.195h0.66v37.61H103.007z M105.347,43.806V6.195h1.68v37.61
		H105.347z M107.687,43.806V6.195h1.68v37.61H107.687z M110.027,43.806V6.195h0.66v37.61H110.027z"/>
	<path d="M111.347,43.806V6.195h0.66v37.61H111.347z M112.667,43.806V6.195h0.66v37.61H112.667z M115.007,43.806V6.195h1.68v37.61
		H115.007z M117.347,43.806V6.195h1.68v37.61H117.347z M119.687,43.806V6.195h0.66v37.61H119.687z"/>
	<path d="M121.007,43.806V6.195h0.66v37.61H121.007z M122.328,43.806V6.195h0.66v37.61H122.328z M124.667,43.806V6.195h1.68v37.61
		H124.667z M127.007,43.806V6.195h1.68v37.61H127.007z M129.347,43.806V6.195h0.66v37.61H129.347z"/>
	<path d="M130.667,43.806V6.195h0.66v37.61H130.667z M131.987,43.806V6.195h0.66v37.61H131.987z M134.327,43.806V6.195h1.68v37.61
		H134.327z M136.667,43.806V6.195h1.68v37.61H136.667z M139.006,43.806V6.195h0.66v37.61H139.006z"/>
	<path d="M140.327,43.806V6.195h0.66v37.61H140.327z M141.647,43.806V6.195h0.66v37.61H141.647z M143.987,43.806V6.195h1.68v37.61
		H143.987z M146.327,43.806V6.195h1.68v37.61H146.327z M148.667,43.806V6.195h0.66v37.61H148.667z"/>
	<path d="M149.987,43.806V6.195h0.66v37.61H149.987z M151.307,43.806V6.195h0.66v37.61H151.307z M153.647,43.806V6.195h1.68v37.61
		H153.647z M155.987,43.806V6.195h1.68v37.61H155.987z M158.327,43.806V6.195h0.66v37.61H158.327z"/>
	<path d="M159.646,43.806V6.195h1.68v37.61H159.646z M161.986,43.806V6.195h0.66v37.61H161.986z M164.326,43.806V6.195h0.66v37.61
		H164.326z M165.646,43.806V6.195h0.66v37.61H165.646z M166.966,43.806V6.195h1.68v37.61H166.966z"/>
	<path d="M169.306,43.806V6.195h0.66v37.61H169.306z M171.646,43.806V6.195h0.66v37.61H171.646z M172.966,43.806V6.195h1.68v37.61
		H172.966z M175.306,43.806V6.195h1.68v37.61H175.306z M177.646,43.806V6.195h0.66v37.61H177.646z"/>
</g>
</svg>
