<?xml version="1.0" encoding="utf-8"?>
<!-- Generator: Adobe Illustrator 16.0.0, SVG Export Plug-In . SVG Version: 6.00 Build 0)  -->
<!DOCTYPE svg PUBLIC "-//W3C//DTD SVG 1.1//EN" "http://www.w3.org/Graphics/SVG/1.1/DTD/svg11.dtd">
<svg version="1.1" id="Слой_1" xmlns="http://www.w3.org/2000/svg" xmlns:xlink="http://www.w3.org/1999/xlink" x="0px" y="0px"
	 width="142.311px" height="42.311px" viewBox="0 0 142.311 42.311" enable-background="new 0 0 142.311 42.311"
	 xml:space="preserve">
<g>
	<path d="M63.254,13.853L53.54,24.875h2.634l1.753-2.063h3.77l-0.42,2.063h2.55l1.907-11.022H63.254z M62.157,20.941h-2.723
		l3.576-4.209L62.157,20.941z"/>
	<path d="M74.512,19.201l0.01-0.029c0.45-0.084,0.897-0.252,1.339-0.502c0.444-0.25,0.843-0.578,1.193-0.979
		c0.354-0.402,0.614-0.862,0.784-1.385c0.27-0.824,0.174-1.485-0.289-1.978c-0.461-0.495-1.375-0.743-2.744-0.743
		c-0.917,0-1.769,0.119-2.557,0.357c-0.789,0.24-1.521,0.646-2.203,1.217c-0.684,0.568-1.285,1.326-1.811,2.271h2.48
		c0.376-0.666,0.802-1.139,1.279-1.414c0.478-0.272,1.014-0.413,1.604-0.413c0.563,0,0.962,0.104,1.198,0.31
		c0.233,0.203,0.288,0.502,0.159,0.896c-0.117,0.358-0.355,0.688-0.714,0.982c-0.36,0.295-0.904,0.441-1.633,0.441H71.39
		l-1.063,2.021h1.471c1.035,0,1.432,0.372,1.188,1.114c-0.147,0.456-0.466,0.865-0.948,1.231c-0.486,0.366-1.148,0.55-1.987,0.55
		c-0.789,0-1.304-0.146-1.546-0.441s-0.293-0.661-0.148-1.104c0.057-0.168,0.137-0.342,0.242-0.518h-2.396v0.002
		c-0.133,0.289-0.313,0.785-0.539,1.481c-0.238,0.729-0.188,1.282,0.15,1.667c0.339,0.387,0.809,0.635,1.402,0.746
		c0.596,0.115,1.258,0.174,1.984,0.174c1.012,0,1.901-0.121,2.674-0.364c0.771-0.243,1.41-0.556,1.912-0.936
		c0.504-0.381,0.898-0.778,1.188-1.198c0.289-0.424,0.498-0.83,0.629-1.23C75.991,20.243,75.626,19.5,74.512,19.201z"/>
	<polygon points="81.445,13.853 75.625,24.875 78.077,24.875 82.764,15.991 86.69,15.991 82.002,24.875 84.452,24.875 
		90.275,13.853 	"/>
	<path d="M99.655,14.233c-0.404-0.292-0.83-0.48-1.271-0.564c-0.444-0.084-0.865-0.127-1.265-0.127
		c-1.085,0-2.104,0.223-3.059,0.672c-0.952,0.447-1.799,1.029-2.538,1.748c-0.742,0.718-1.363,1.488-1.871,2.307
		c-0.506,0.82-0.885,1.613-1.135,2.375c-0.226,0.69-0.33,1.374-0.313,2.05c0.017,0.681,0.29,1.265,0.82,1.758
		c0.532,0.489,1.417,0.738,2.658,0.738c1.075-0.002,2.085-0.228,3.03-0.674c0.946-0.445,1.783-1.027,2.516-1.745
		c0.733-0.718,1.351-1.486,1.849-2.305c0.499-0.82,0.876-1.612,1.126-2.377c0.333-1.02,0.427-1.84,0.28-2.469
		C100.338,14.987,100.064,14.526,99.655,14.233z M97.424,18.458c-0.157,0.479-0.382,0.981-0.675,1.513s-0.647,1.03-1.066,1.498
		c-0.418,0.468-0.893,0.85-1.42,1.142c-0.529,0.292-1.093,0.438-1.688,0.438c-0.771,0-1.242-0.258-1.416-0.774
		c-0.177-0.515-0.127-1.183,0.143-2.005c0.156-0.479,0.379-0.979,0.67-1.508c0.292-0.525,0.647-1.025,1.063-1.498
		c0.418-0.472,0.893-0.855,1.416-1.146c0.527-0.292,1.09-0.438,1.684-0.438C97.6,15.68,98.03,16.606,97.424,18.458z"/>
	<path d="M109.768,13.853l-2.321,4.397c-0.544,0.079-1.079,0.118-1.608,0.118c-0.33,0-0.604-0.021-0.827-0.059
		c-0.226-0.039-0.394-0.136-0.515-0.289c-0.12-0.152-0.129-0.383-0.027-0.691c0.067-0.205,0.184-0.477,0.352-0.817l1.418-2.659
		h-2.452l-1.553,2.941c-0.228,0.439-0.4,0.842-0.521,1.203c-0.234,0.716-0.25,1.261-0.051,1.635
		c0.204,0.371,0.512,0.612,0.936,0.718c0.42,0.106,0.917,0.158,1.489,0.158c0.789,0,1.535-0.04,2.239-0.118l-2.377,4.485h2.45
		l5.82-11.022H109.768z"/>
	<polygon points="121.12,15.991 122.241,13.852 113.509,13.852 112.389,15.991 115.529,15.991 110.84,24.875 113.293,24.875 
		117.979,15.991 	"/>
	<path d="M126.184,13.853l-9.714,11.022h2.635l1.754-2.063h3.77l-0.42,2.063h2.548l1.909-11.022H126.184z M125.086,20.941h-2.721
		l3.575-4.209L125.086,20.941z"/>
	<polygon points="52,23.823 51.006,19.141 57.75,13.852 54.781,13.852 49,18.547 48.956,18.547 51.473,13.853 49.021,13.853 
		43.2,24.875 45.652,24.875 48.487,19.423 48.529,19.423 49.365,24.875 50.808,24.875 49.293,27.715 51.745,27.715 53.774,23.823 	
		"/>
	<polygon points="34.555,19.035 37.553,21.423 33.845,21.423 28.252,17.825 44.045,17.825 46.252,13.865 11.961,13.865 
		33.094,26.731 39.036,26.731 39.483,26.012 43.37,19.035 	"/>
</g>
<g>
	<path d="M40.02,36.031l-0.29-6.736h1.169l0.07,3.468c0.01,0.84-0.01,1.46-0.03,1.989h0.02c0.21-0.56,0.41-1.14,0.75-1.959
		l1.509-3.498h1.27l0.05,3.398c0.01,0.839,0,1.469-0.03,2.028h0.02c0.22-0.64,0.439-1.279,0.709-1.959l1.449-3.468h1.229
		l-3.038,6.736h-1.259l-0.1-3.248c-0.02-0.779-0.01-1.329,0.04-2.099h-0.03c-0.23,0.689-0.44,1.319-0.75,2.049l-1.479,3.298H40.02z"
		/>
	<path d="M50.688,35.75c-0.479,0.25-1.129,0.38-1.719,0.38c-1.349,0-1.999-0.819-1.999-2.009c0-1.469,1.08-3.068,2.758-3.068
		c0.959,0,1.569,0.56,1.569,1.369c0,1.25-1.309,1.649-3.188,1.609c-0.02,0.17,0.02,0.5,0.13,0.689c0.19,0.33,0.54,0.5,0.999,0.5
		c0.55,0,0.99-0.14,1.339-0.319L50.688,35.75z M49.579,31.923c-0.729,0-1.209,0.649-1.349,1.239c1.199,0.02,1.969-0.15,1.969-0.729
		C50.198,32.113,49.949,31.923,49.579,31.923z"/>
	<path d="M56.468,35.861c-0.28,0.14-0.779,0.27-1.399,0.27c-1.219,0-1.969-0.779-1.969-1.938c0-1.699,1.289-3.139,3.098-3.139
		c0.43,0,0.81,0.11,0.989,0.19l-0.3,0.909c-0.18-0.08-0.41-0.149-0.729-0.149c-1.129,0-1.839,1.039-1.839,2.049
		c0,0.729,0.419,1.139,1.069,1.139c0.45,0,0.79-0.119,1.04-0.229L56.468,35.861z"/>
	<path d="M57.04,36.031l1.339-7.096h1.169l-0.57,2.958h0.02c0.41-0.51,0.95-0.84,1.629-0.84c0.669,0,1.219,0.42,1.219,1.31
		c0,0.25-0.03,0.59-0.08,0.859l-0.54,2.809h-1.16l0.52-2.729c0.03-0.189,0.06-0.399,0.06-0.64c0-0.37-0.17-0.659-0.61-0.659
		c-0.57,0-1.209,0.679-1.399,1.709l-0.439,2.318H57.04z"/>
	<path d="M65.488,36.031c0.01-0.29,0.05-0.68,0.09-1.1h-0.03c-0.479,0.899-1.119,1.21-1.739,1.21c-0.87,0-1.439-0.68-1.439-1.659
		c0-1.659,1.16-3.429,3.428-3.429c0.53,0,1.099,0.101,1.469,0.22l-0.5,2.539c-0.14,0.729-0.22,1.639-0.2,2.219H65.488z
		 M65.968,32.003c-0.12-0.03-0.27-0.051-0.48-0.051c-1.079,0-1.909,1.21-1.909,2.319c0,0.51,0.19,0.93,0.7,0.93
		c0.54,0,1.199-0.68,1.429-1.919L65.968,32.003z"/>
	<path d="M67.469,36.031l0.63-3.358c0.12-0.579,0.19-1.089,0.25-1.509h1.029l-0.1,0.879h0.02c0.45-0.659,1.069-0.989,1.749-0.989
		c0.69,0,1.239,0.42,1.239,1.34c0,0.22-0.039,0.56-0.09,0.81l-0.539,2.828h-1.16l0.52-2.748c0.03-0.181,0.06-0.391,0.06-0.58
		c0-0.399-0.15-0.699-0.61-0.699c-0.53,0-1.209,0.64-1.419,1.778l-0.419,2.249H67.469z"/>
	<path d="M72.909,36.9c0.29,0.17,0.83,0.29,1.289,0.29c0.76,0,1.34-0.359,1.579-1.489l0.12-0.55h-0.02
		c-0.4,0.58-0.91,0.86-1.529,0.86c-0.97,0-1.52-0.8-1.529-1.72c0-1.619,1.17-3.238,3.188-3.238c0.63,0,1.239,0.141,1.688,0.34
		l-0.739,4.018c-0.18,0.95-0.46,1.71-0.999,2.169c-0.51,0.42-1.199,0.54-1.81,0.54c-0.62,0-1.199-0.13-1.519-0.33L72.909,36.9z
		 M76.428,32.082c-0.12-0.06-0.37-0.119-0.64-0.119c-1.02,0-1.739,1.099-1.739,2.148c-0.011,0.51,0.2,0.989,0.779,0.989
		c0.58,0,1.159-0.689,1.329-1.569L76.428,32.082z"/>
	<path d="M81.717,35.75c-0.479,0.25-1.129,0.38-1.719,0.38c-1.35,0-1.999-0.819-1.999-2.009c0-1.469,1.079-3.068,2.759-3.068
		c0.959,0,1.569,0.56,1.569,1.369c0,1.25-1.31,1.649-3.188,1.609c-0.021,0.17,0.02,0.5,0.13,0.689c0.189,0.33,0.539,0.5,0.999,0.5
		c0.55,0,0.989-0.14,1.34-0.319L81.717,35.75z M80.608,31.923c-0.729,0-1.209,0.649-1.349,1.239c1.199,0.02,1.969-0.15,1.969-0.729
		C81.228,32.113,80.978,31.923,80.608,31.923z"/>
	<path d="M81.62,37.24c0.38-0.759,0.819-1.809,1.06-2.639l1.31-0.1c-0.42,0.939-1.03,2.019-1.51,2.658L81.62,37.24z"/>
	<path d="M87.559,31.163l0.09,2.368c0.021,0.57,0.011,0.96-0.02,1.439h0.02c0.15-0.43,0.351-0.879,0.57-1.369l1.179-2.438h0.97
		l0.2,2.379c0.04,0.55,0.06,0.999,0.05,1.429h0.021c0.149-0.47,0.3-0.909,0.499-1.429l1.05-2.379h1.179l-2.389,4.867h-1.089
		l-0.22-2.119c-0.04-0.479-0.05-0.919-0.05-1.438h-0.021c-0.239,0.589-0.359,0.959-0.579,1.389l-1.08,2.169H86.85l-0.45-4.867
		H87.559z"/>
	<path d="M96.728,35.75c-0.479,0.25-1.129,0.38-1.719,0.38c-1.35,0-1.999-0.819-1.999-2.009c0-1.469,1.079-3.068,2.759-3.068
		c0.959,0,1.569,0.56,1.569,1.369c0,1.25-1.31,1.649-3.188,1.609c-0.021,0.17,0.02,0.5,0.13,0.689c0.189,0.33,0.539,0.5,0.999,0.5
		c0.55,0,0.989-0.14,1.34-0.319L96.728,35.75z M95.618,31.923c-0.729,0-1.209,0.649-1.349,1.239c1.199,0.02,1.969-0.15,1.969-0.729
		C96.239,32.113,95.989,31.923,95.618,31.923z"/>
	<path d="M104.496,28.935l-1.02,5.366c-0.11,0.561-0.189,1.2-0.22,1.729h-1.069l0.1-0.869h-0.02c-0.44,0.669-1.04,0.979-1.67,0.979
		c-0.869,0-1.479-0.71-1.479-1.81c0-1.709,1.249-3.278,3.038-3.278c0.25,0,0.54,0.05,0.75,0.141l0.43-2.259H104.496z
		 M102.738,32.143c-0.141-0.101-0.38-0.19-0.67-0.19c-1,0-1.739,1.109-1.739,2.199c0,0.59,0.23,1.05,0.779,1.05
		c0.521,0,1.14-0.57,1.34-1.579L102.738,32.143z"/>
	<path d="M108.037,35.75c-0.479,0.25-1.129,0.38-1.719,0.38c-1.35,0-1.999-0.819-1.999-2.009c0-1.469,1.079-3.068,2.759-3.068
		c0.959,0,1.569,0.56,1.569,1.369c0,1.25-1.31,1.649-3.188,1.609c-0.021,0.17,0.02,0.5,0.13,0.689c0.189,0.33,0.539,0.5,0.999,0.5
		c0.55,0,0.989-0.14,1.34-0.319L108.037,35.75z M106.928,31.923c-0.729,0-1.209,0.649-1.349,1.239
		c1.199,0.02,1.969-0.15,1.969-0.729C107.548,32.113,107.298,31.923,106.928,31.923z"/>
	<path d="M108.76,36.031l1.359-7.096h1.159l-1.35,7.096H108.76z"/>
	<path d="M110.999,36.031l0.919-4.867h1.17l-0.93,4.867H110.999z M112.109,29.844c0-0.42,0.319-0.71,0.699-0.71
		c0.36,0,0.62,0.26,0.62,0.63c-0.011,0.43-0.33,0.699-0.72,0.699C112.348,30.463,112.098,30.203,112.109,29.844z"/>
	<path d="M114.718,31.163l0.311,2.419c0.06,0.579,0.119,0.949,0.14,1.269h0.03c0.119-0.31,0.26-0.659,0.529-1.239l1.209-2.448h1.29
		l-2.709,4.867h-1.169l-0.83-4.867H114.718z"/>
	<path d="M121.577,35.75c-0.479,0.25-1.129,0.38-1.719,0.38c-1.35,0-1.999-0.819-1.999-2.009c0-1.469,1.079-3.068,2.759-3.068
		c0.959,0,1.569,0.56,1.569,1.369c0,1.25-1.31,1.649-3.188,1.609c-0.021,0.17,0.02,0.5,0.13,0.689c0.189,0.33,0.539,0.5,0.999,0.5
		c0.55,0,0.989-0.14,1.34-0.319L121.577,35.75z M120.468,31.923c-0.729,0-1.209,0.649-1.349,1.239
		c1.199,0.02,1.969-0.15,1.969-0.729C121.088,32.113,120.838,31.923,120.468,31.923z"/>
	<path d="M122.299,36.031l0.569-2.998c0.13-0.689,0.189-1.43,0.25-1.869h1.01c-0.03,0.33-0.061,0.67-0.11,1.029h0.03
		c0.329-0.659,0.859-1.14,1.529-1.14c0.079,0,0.17,0.011,0.249,0.021l-0.229,1.139c-0.06-0.01-0.14-0.02-0.22-0.02
		c-0.83,0-1.359,0.84-1.549,1.879l-0.37,1.959H122.299z"/>
</g>
</svg>
