<?xml version="1.0" encoding="utf-8"?>
<!-- Generator: Adobe Illustrator 16.0.0, SVG Export Plug-In . SVG Version: 6.00 Build 0)  -->
<!DOCTYPE svg PUBLIC "-//W3C//DTD SVG 1.1//EN" "http://www.w3.org/Graphics/SVG/1.1/DTD/svg11.dtd">
<svg version="1.1" id="Слой_1" xmlns="http://www.w3.org/2000/svg" xmlns:xlink="http://www.w3.org/1999/xlink" x="0px" y="0px"
	 width="184.946px" height="50px" viewBox="0 0 184.946 50" enable-background="new 0 0 184.946 50" xml:space="preserve">
<g>
	<polygon points="16.276,22 23.276,22 23.276,35 30.276,35 30.276,22 37.276,22 37.276,16 16.276,16 	"/>
	<path d="M39.276,16v11.671L46.532,35h12.744V22.884L51.824,16H39.276z M52.276,28h-7v-6h7V28z"/>
	<path d="M61.276,16v11.671L69.356,35h12.92V22.884L74.647,16H61.276z M75.276,28h-7v-6h7V28z"/>
	<polygon points="91.276,9 84.276,9 84.276,35 98.276,35 98.276,28 91.276,28 	"/>
	<path d="M99.276,20.184V41h7V30.335L111.51,35h8.766V16h-15.749L99.276,20.184z M106.276,22h7v6h-7V22z"/>
	<path d="M122.276,22.92V35h9.286l4.714-4.63V35h7V16h-12.938L122.276,22.92z M136.276,28h-7v-6h7V28z"/>
	<polygon points="152.276,18.852 152.276,16 145.276,16 145.276,35 152.276,35 152.276,22 157.276,22 157.276,28.392 
		164.276,21.876 164.276,16 155.753,16 	"/>
	<path d="M172.042,15.948c0.003-0.084,0.004-0.163,0.004-0.234c0-0.2-0.154-0.366-0.228-0.497c-0.072-0.131-0.542-0.225-0.542-0.282
		v-0.01c1-0.15,0.748-0.457,0.748-0.92c0-0.382-0.049-0.647-0.266-0.789c-0.218-0.143-0.455-0.216-0.833-0.216h-1.649v4h1v-2h0.068
		c0.244,0,0.425,0.156,0.542,0.214c0.117,0.058,0.191,0.204,0.222,0.31c0.031,0.106,0.047,0.291,0.047,0.487
		c0.005,0.208,0.016,0.512,0.031,0.595c0.017,0.083,0.053,0.393,0.107,0.393h0.911c-0.114,0-0.171-0.449-0.171-0.714
		C172.034,16.241,172.036,16.033,172.042,15.948z M171.107,14.452c-0.085,0.103-0.246,0.154-0.481,0.154h-0.462v-0.952h0.381
		c0.192,0,0.355,0.038,0.489,0.112c0.135,0.075,0.201,0.191,0.201,0.349C171.235,14.237,171.193,14.349,171.107,14.452z"/>
	<path d="M174.035,13.386c-0.208-0.461-0.488-0.856-0.843-1.184c-0.354-0.328-0.753-0.58-1.197-0.755
		c-0.444-0.175-0.897-0.262-1.359-0.262c-0.529,0-1.021,0.101-1.478,0.301c-0.456,0.201-0.851,0.478-1.187,0.83
		c-0.336,0.353-0.594,0.752-0.775,1.198s-0.271,0.906-0.271,1.379c0,0.531,0.101,1.024,0.304,1.479
		c0.202,0.456,0.481,0.852,0.836,1.188c0.354,0.336,0.755,0.594,1.198,0.774c0.445,0.18,0.902,0.27,1.373,0.27
		c0.604,0,1.192-0.153,1.768-0.459c0.574-0.306,1.041-0.742,1.402-1.309c0.36-0.566,0.541-1.214,0.541-1.943
		C174.346,14.35,174.242,13.848,174.035,13.386z M173.223,16.08c-0.155,0.366-0.365,0.68-0.631,0.941
		c-0.265,0.261-0.567,0.464-0.908,0.607c-0.34,0.145-0.689,0.216-1.049,0.216c-0.459,0-0.906-0.121-1.341-0.361
		s-0.788-0.586-1.061-1.035s-0.409-0.968-0.409-1.555c0-0.578,0.133-1.092,0.4-1.542c0.268-0.45,0.617-0.797,1.05-1.041
		s0.886-0.366,1.36-0.366c0.469,0,0.92,0.123,1.355,0.369s0.789,0.594,1.059,1.046c0.27,0.451,0.405,0.963,0.405,1.534
		C173.455,15.318,173.377,15.714,173.223,16.08z"/>
</g>
</svg>
